<svg id="svg" version="1.1" xmlns="http://www.w3.org/2000/svg" xmlns:xlink="http://www.w3.org/1999/xlink" width="400" height="600" viewBox="0, 0, 400,600"><g id="svgg"><path id="path0" d="M378.000 0.600 C 378.000 0.973,378.378 1.200,379.000 1.200 C 379.622 1.200,380.000 0.973,380.000 0.600 C 380.000 0.227,379.622 0.000,379.000 0.000 C 378.378 0.000,378.000 0.227,378.000 0.600 M9.542 1.651 C 8.959 1.864,8.387 2.435,8.270 2.919 L 8.057 3.800 8.677 2.900 C 9.018 2.405,9.535 2.000,9.825 2.000 C 10.115 2.000,10.464 1.820,10.600 1.600 C 10.736 1.380,10.792 1.214,10.724 1.232 C 10.656 1.249,10.124 1.438,9.542 1.651 M382.171 1.829 C 382.517 2.174,382.800 2.714,382.800 3.029 C 382.800 3.343,383.141 3.600,383.558 3.600 C 383.974 3.600,384.886 4.133,385.584 4.785 C 386.482 5.624,386.815 5.773,386.723 5.295 C 386.651 4.924,386.219 4.433,385.761 4.205 C 385.303 3.977,384.346 3.208,383.634 2.495 C 382.921 1.783,382.159 1.200,381.941 1.200 C 381.722 1.200,381.826 1.483,382.171 1.829 M387.651 7.083 C 388.559 8.212,389.600 9.216,389.600 8.962 C 389.600 8.465,387.927 6.400,387.524 6.400 C 387.278 6.400,387.331 6.685,387.651 7.083 M1.590 9.426 C 1.376 9.990,1.214 10.665,1.232 10.926 C 1.249 11.187,1.456 10.860,1.692 10.200 C 1.927 9.540,2.318 8.868,2.560 8.706 C 2.862 8.504,2.840 8.410,2.490 8.406 C 2.210 8.403,1.805 8.862,1.590 9.426 M17.638 9.485 C 15.670 10.265,12.131 13.499,10.311 16.182 L 9.215 17.800 9.207 300.137 L 9.200 582.473 10.100 583.691 C 10.910 584.787,14.089 588.094,16.214 590.050 C 17.007 590.781,21.583 590.800,195.562 590.800 L 374.096 590.800 375.923 589.700 C 378.433 588.188,381.606 585.075,381.572 584.157 C 381.548 583.515,381.503 583.499,381.272 584.050 C 380.706 585.402,378.060 587.890,375.879 589.121 L 373.612 590.400 195.569 590.400 L 17.527 590.400 16.349 589.500 C 13.356 587.214,12.273 586.144,10.985 584.204 L 9.600 582.117 9.600 300.230 L 9.600 18.342 10.692 16.479 C 12.137 14.013,14.322 11.874,16.676 10.621 L 18.594 9.600 196.171 9.600 L 373.748 9.600 374.774 10.500 L 375.800 11.400 374.830 10.300 L 373.861 9.200 196.030 9.232 C 98.224 9.249,17.947 9.363,17.638 9.485 M376.800 11.647 C 378.068 12.150,380.297 14.273,381.034 15.680 C 381.520 16.608,381.614 56.747,381.700 300.080 L 381.799 583.400 381.913 300.600 C 381.975 145.060,381.926 17.240,381.805 16.556 C 381.478 14.707,377.825 11.153,376.326 11.225 C 376.037 11.239,376.250 11.429,376.800 11.647 M392.000 17.455 C 392.000 17.649,392.360 18.032,392.800 18.307 C 393.599 18.806,393.600 19.240,393.600 300.200 C 393.600 581.160,393.599 581.594,392.800 582.093 C 392.360 582.368,392.000 582.937,392.000 583.357 C 392.000 584.342,393.503 582.747,393.820 581.426 C 393.929 580.972,393.969 454.082,393.909 299.449 L 393.800 18.298 392.900 17.700 C 392.405 17.371,392.000 17.261,392.000 17.455 M28.273 28.100 C 27.477 28.686,27.195 228.484,27.988 230.570 L 28.380 231.600 195.490 231.595 C 372.229 231.589,364.063 231.659,364.751 230.147 C 365.421 228.677,365.390 28.750,364.720 28.080 C 364.003 27.363,29.249 27.382,28.273 28.100 M126.600 309.889 C 124.716 310.352,124.800 307.945,124.799 361.749 C 124.797 418.783,125.009 414.738,121.991 415.342 C 121.281 415.484,104.545 415.600,84.799 415.600 C 53.512 415.600,48.835 415.676,48.404 416.195 C 47.562 417.210,48.204 417.828,52.192 419.847 C 54.314 420.921,56.908 422.449,57.957 423.242 C 59.006 424.036,61.110 425.372,62.632 426.211 C 64.154 427.051,65.940 428.101,66.600 428.544 L 67.800 429.351 67.005 428.439 C 66.568 427.937,65.533 427.183,64.705 426.763 C 63.877 426.344,62.439 425.616,61.508 425.146 C 60.577 424.677,59.002 423.610,58.008 422.777 C 56.206 421.266,51.106 418.400,50.220 418.400 C 49.295 418.400,48.352 417.391,48.621 416.689 C 48.869 416.044,51.225 415.997,85.343 415.960 C 105.394 415.938,122.234 415.799,122.764 415.651 C 125.415 414.909,125.232 418.907,125.211 362.432 C 125.193 314.266,125.230 311.465,125.896 310.960 C 126.880 310.213,272.774 310.134,273.520 310.880 C 273.888 311.248,274.000 323.203,274.000 362.254 C 274.000 392.606,274.150 413.542,274.371 414.125 C 275.082 415.995,275.185 416.000,313.211 416.000 C 344.952 416.000,349.161 416.071,349.610 416.613 C 350.192 417.314,349.359 418.157,347.651 418.596 C 346.315 418.939,340.373 423.050,339.672 424.115 L 339.090 425.000 340.045 424.095 C 341.482 422.733,344.735 420.644,347.907 419.047 C 351.155 417.411,351.447 417.104,350.575 416.232 C 350.008 415.665,346.179 415.600,313.416 415.600 C 278.048 415.600,276.859 415.576,275.944 414.835 L 275.000 414.071 274.896 362.661 L 274.791 311.251 273.742 310.426 L 272.692 309.600 200.046 309.646 C 160.091 309.672,127.040 309.781,126.600 309.889 M334.933 426.238 C 333.430 427.029,331.740 428.109,331.178 428.638 C 330.616 429.167,329.955 429.600,329.709 429.600 C 329.463 429.600,328.753 430.009,328.131 430.509 C 327.509 431.009,326.370 431.737,325.600 432.127 C 322.868 433.512,320.661 434.846,319.540 435.789 C 318.915 436.315,318.043 436.859,317.602 436.999 C 317.161 437.139,316.800 437.427,316.800 437.639 C 316.800 437.850,317.745 437.399,318.900 436.636 C 320.055 435.873,322.483 434.428,324.296 433.424 C 326.108 432.421,328.808 430.765,330.296 429.743 C 331.783 428.721,334.314 427.191,335.919 426.343 C 337.524 425.494,338.574 424.800,338.252 424.800 C 337.930 424.800,336.436 425.447,334.933 426.238 M71.443 431.513 C 73.399 432.785,75.521 434.053,76.159 434.331 C 76.796 434.609,77.786 435.198,78.359 435.639 C 79.661 436.644,80.985 437.487,87.000 441.140 C 91.445 443.840,92.502 444.521,95.800 446.808 C 97.282 447.835,101.705 450.657,103.937 452.000 C 104.852 452.550,106.725 453.762,108.100 454.693 C 109.475 455.624,111.320 456.751,112.200 457.197 C 113.080 457.643,114.790 458.630,116.000 459.392 C 117.210 460.153,119.042 461.228,120.072 461.780 C 121.101 462.333,122.049 462.955,122.177 463.163 C 122.306 463.371,123.893 464.373,125.705 465.389 C 130.331 467.983,132.945 469.613,133.330 470.145 C 133.551 470.448,133.607 470.403,133.500 470.009 C 133.326 469.369,131.704 468.308,126.400 465.361 C 124.530 464.322,122.522 463.096,121.939 462.636 C 121.355 462.176,119.946 461.260,118.806 460.600 C 117.667 459.940,116.095 458.984,115.313 458.475 C 114.530 457.966,113.195 457.271,112.345 456.931 C 111.495 456.591,110.800 456.158,110.800 455.969 C 110.800 455.589,106.781 452.925,105.436 452.414 C 104.969 452.236,103.087 451.087,101.254 449.860 C 99.420 448.633,97.578 447.520,97.160 447.387 C 96.742 447.255,96.400 446.998,96.400 446.816 C 96.400 446.635,95.137 445.702,93.593 444.743 C 92.049 443.784,89.579 442.145,88.104 441.100 C 86.629 440.055,85.212 439.200,84.956 439.200 C 84.700 439.200,83.610 438.595,82.536 437.856 C 81.461 437.116,80.197 436.390,79.728 436.241 C 79.258 436.091,78.771 435.702,78.645 435.374 C 78.520 435.047,77.648 434.414,76.708 433.969 C 74.814 433.071,72.028 431.475,69.956 430.101 C 69.210 429.607,68.439 429.202,68.243 429.201 C 68.047 429.201,69.487 430.241,71.443 431.513 M313.400 439.430 C 311.860 440.214,309.970 441.355,309.200 441.966 C 308.430 442.577,307.215 443.379,306.500 443.748 C 305.785 444.118,305.200 444.574,305.200 444.762 C 305.200 444.949,304.656 445.328,303.991 445.604 C 303.325 445.879,302.650 446.328,302.491 446.600 C 302.331 446.873,301.435 447.483,300.500 447.956 C 299.565 448.429,298.800 448.991,298.800 449.205 C 298.800 449.582,297.521 450.339,294.200 451.929 C 293.320 452.350,291.460 453.483,290.067 454.447 C 288.673 455.411,287.041 456.476,286.440 456.813 C 284.903 457.676,283.015 459.200,283.484 459.200 C 283.700 459.200,284.202 458.840,284.600 458.400 C 284.998 457.960,285.552 457.600,285.831 457.600 C 286.110 457.600,286.847 457.175,287.469 456.655 C 288.091 456.135,289.378 455.280,290.330 454.755 C 291.281 454.230,292.827 453.350,293.765 452.800 C 294.703 452.250,296.085 451.464,296.835 451.053 C 297.586 450.642,298.607 449.934,299.104 449.480 C 299.602 449.025,300.616 448.281,301.358 447.826 C 302.100 447.372,303.472 446.460,304.407 445.800 C 307.060 443.928,309.150 442.578,312.400 440.640 C 317.576 437.554,317.933 437.121,313.400 439.430 M281.381 459.706 C 278.485 461.452,277.785 461.903,276.582 462.800 C 275.844 463.350,274.515 464.239,273.629 464.775 C 272.742 465.311,272.082 465.815,272.162 465.895 C 272.300 466.033,274.038 464.972,276.600 463.185 C 277.260 462.725,278.970 461.640,280.400 460.774 C 281.830 459.909,282.820 459.203,282.600 459.206 C 282.380 459.209,281.831 459.434,281.381 459.706 M270.200 466.378 C 269.760 466.558,269.057 467.087,268.638 467.553 C 268.219 468.019,267.648 468.400,267.369 468.400 C 267.090 468.400,266.336 468.842,265.693 469.383 C 264.476 470.407,262.134 471.791,259.400 473.103 C 258.520 473.525,257.553 474.169,257.251 474.535 C 256.949 474.901,256.468 475.200,256.182 475.200 C 255.896 475.200,255.153 475.625,254.531 476.145 C 253.909 476.665,252.617 477.520,251.660 478.045 C 249.920 479.000,247.699 480.294,245.218 481.800 C 244.492 482.240,243.427 482.976,242.850 483.436 C 242.272 483.896,240.243 485.116,238.340 486.147 C 236.438 487.177,234.660 488.286,234.391 488.610 C 234.122 488.935,233.685 489.200,233.421 489.200 C 233.156 489.200,232.503 489.695,231.970 490.300 L 231.000 491.400 232.026 490.500 C 232.590 490.005,233.203 489.600,233.388 489.600 C 233.573 489.600,234.281 489.177,234.962 488.661 C 235.643 488.145,237.640 486.946,239.400 485.997 C 241.160 485.049,242.960 483.962,243.400 483.583 C 243.840 483.204,244.740 482.596,245.400 482.233 C 246.060 481.870,247.590 480.948,248.800 480.184 C 250.010 479.420,251.628 478.518,252.395 478.178 C 253.162 477.839,254.152 477.237,254.595 476.840 C 255.438 476.084,262.703 471.600,263.084 471.600 C 263.205 471.600,264.181 470.970,265.253 470.200 C 266.325 469.430,267.296 468.800,267.411 468.800 C 267.525 468.800,268.535 468.170,269.655 467.400 C 271.644 466.032,271.811 465.719,270.200 466.378 M134.000 470.549 C 134.000 470.620,135.305 471.360,136.900 472.195 C 138.495 473.029,140.250 474.056,140.800 474.477 C 142.638 475.884,144.800 477.179,144.800 476.873 C 144.800 476.557,141.149 474.111,137.934 472.273 C 136.081 471.213,134.000 470.302,134.000 470.549 M147.646 478.745 C 148.171 479.155,149.320 479.884,150.200 480.365 C 151.871 481.279,155.097 483.255,157.055 484.566 C 159.047 485.898,160.160 486.566,161.600 487.296 C 162.370 487.686,163.565 488.409,164.256 488.903 C 164.947 489.396,166.112 490.160,166.845 490.600 C 167.578 491.040,168.813 491.790,169.589 492.266 C 170.365 492.743,171.720 493.508,172.600 493.968 C 173.480 494.427,174.778 495.207,175.485 495.701 C 176.192 496.196,177.587 497.095,178.585 497.700 C 179.583 498.305,181.217 499.295,182.216 499.900 C 183.215 500.505,184.645 501.392,185.393 501.872 C 186.384 502.508,186.691 502.581,186.523 502.143 C 186.396 501.812,185.531 501.149,184.601 500.670 C 180.653 498.638,178.841 497.590,178.601 497.202 C 178.460 496.974,177.701 496.519,176.914 496.190 C 176.126 495.861,175.284 495.330,175.041 495.009 C 174.798 494.689,173.220 493.722,171.532 492.859 C 169.845 491.996,167.848 490.820,167.095 490.245 C 166.341 489.670,165.516 489.200,165.262 489.200 C 165.008 489.200,164.408 488.808,163.929 488.329 C 163.059 487.459,161.210 486.319,158.200 484.797 C 156.675 484.026,154.995 482.937,152.800 481.299 C 151.629 480.425,147.331 478.000,146.952 478.000 C 146.809 478.000,147.121 478.335,147.646 478.745 M228.100 492.396 C 227.385 492.832,226.800 493.296,226.800 493.427 C 226.800 493.615,229.206 492.326,229.967 491.731 C 230.594 491.239,229.157 491.751,228.100 492.396 M224.600 494.383 C 223.940 494.812,222.680 495.694,221.800 496.343 C 220.920 496.993,218.580 498.366,216.600 499.395 C 214.620 500.424,212.640 501.590,212.200 501.986 C 211.760 502.382,210.815 503.002,210.100 503.363 C 209.385 503.725,208.800 504.190,208.800 504.398 C 208.800 504.752,210.542 503.750,212.773 502.113 C 213.308 501.721,215.225 500.590,217.033 499.600 C 220.658 497.616,226.783 493.599,226.181 493.601 C 225.972 493.602,225.260 493.954,224.600 494.383 M189.413 504.255 C 190.726 505.056,192.430 506.104,193.200 506.585 C 198.973 510.191,199.818 510.435,201.600 509.014 C 201.930 508.750,203.410 507.840,204.890 506.990 C 206.369 506.141,207.502 505.369,207.408 505.275 C 207.315 505.181,206.644 505.479,205.919 505.937 C 202.172 508.302,199.091 509.571,198.279 509.082 C 196.712 508.139,194.035 506.587,192.453 505.704 C 191.569 505.211,190.181 504.356,189.367 503.804 C 188.554 503.252,187.694 502.800,187.457 502.800 C 187.219 502.800,188.099 503.455,189.413 504.255 M391.086 588.920 C 390.942 589.294,390.549 589.600,390.213 589.600 C 389.867 589.600,389.600 589.948,389.600 590.400 C 389.600 590.840,389.776 591.200,389.991 591.200 C 390.548 591.200,391.707 589.320,391.511 588.733 C 391.404 588.411,391.256 588.476,391.086 588.920 M1.201 589.700 C 1.200 590.522,2.580 592.014,3.300 591.968 C 3.667 591.945,3.658 591.880,3.267 591.724 C 2.974 591.607,2.390 590.946,1.969 590.256 C 1.450 589.405,1.203 589.226,1.201 589.700 M3.666 593.200 C 3.774 593.530,4.388 593.832,5.031 593.872 C 5.765 593.917,5.903 593.864,5.400 593.729 C 4.960 593.611,4.346 593.308,4.035 593.057 C 3.591 592.698,3.512 592.728,3.666 593.200 M6.006 595.076 C 6.003 595.558,6.192 596.071,6.427 596.216 C 7.082 596.621,7.117 596.298,6.539 595.200 C 6.033 594.241,6.012 594.236,6.006 595.076 M383.000 597.659 L 381.800 598.873 383.052 598.251 C 383.740 597.909,384.409 597.353,384.539 597.015 C 384.899 596.077,384.328 596.316,383.000 597.659 M8.000 596.937 C 8.000 597.923,8.923 598.795,9.914 598.746 C 10.852 598.698,10.878 598.667,10.104 598.518 C 9.610 598.423,8.935 597.958,8.604 597.484 C 8.272 597.010,8.000 596.764,8.000 596.937 " stroke="none" fill="#0463ab" fill-rule="evenodd"></path><path id="path1" d="M12.800 0.600 C 12.800 0.930,12.468 1.200,12.061 1.200 C 11.033 1.200,8.922 2.305,8.663 2.979 C 8.545 3.286,8.037 3.597,7.534 3.669 C 7.032 3.741,6.409 4.224,6.152 4.742 C 5.895 5.260,5.260 5.895,4.742 6.152 C 4.224 6.409,3.744 7.012,3.675 7.491 C 3.606 7.970,3.228 8.464,2.836 8.589 C 2.160 8.803,1.200 11.127,1.200 12.546 C 1.200 12.906,0.930 13.200,0.600 13.200 C 0.067 13.200,0.000 45.356,0.000 300.200 C 0.000 555.044,0.067 587.200,0.600 587.200 C 0.938 587.200,1.200 587.558,1.200 588.020 C 1.200 588.999,2.199 591.031,2.900 591.480 C 3.175 591.656,3.598 592.160,3.841 592.600 C 4.083 593.040,4.660 593.456,5.122 593.525 C 5.584 593.594,6.086 594.044,6.238 594.525 C 6.797 596.300,9.380 598.385,11.354 598.656 C 12.523 598.816,13.200 599.109,13.200 599.454 C 13.200 599.914,41.998 600.000,196.800 600.000 C 359.733 600.000,380.400 599.932,380.400 599.400 C 380.400 599.070,380.715 598.799,381.100 598.798 C 381.485 598.797,382.375 598.257,383.078 597.598 C 383.781 596.939,384.714 596.400,385.150 596.400 C 386.061 596.400,387.200 595.399,387.200 594.598 C 387.200 594.299,387.545 593.944,387.967 593.811 C 388.735 593.567,389.600 591.729,389.600 590.340 C 389.600 589.933,389.864 589.600,390.186 589.600 C 391.061 589.600,391.485 588.508,391.815 585.400 C 392.032 583.358,392.314 582.458,392.856 582.077 C 394.013 581.264,394.025 19.149,392.868 18.323 C 392.330 17.938,392.038 16.953,391.768 14.600 C 391.452 11.851,391.273 11.344,390.500 11.005 C 390.005 10.788,389.600 10.311,389.600 9.946 C 389.600 8.681,384.783 3.600,383.584 3.600 C 383.153 3.600,382.800 3.343,382.800 3.029 C 382.800 1.936,381.581 1.200,379.771 1.200 C 378.463 1.200,378.000 1.043,378.000 0.600 C 378.000 0.068,357.444 0.000,195.400 0.000 C 33.356 0.000,12.800 0.068,12.800 0.600 M374.758 10.156 C 375.252 10.681,376.142 11.208,376.735 11.327 C 377.983 11.577,381.097 14.478,381.634 15.891 C 382.161 17.275,382.118 582.159,381.591 584.055 C 381.153 585.633,378.911 587.854,375.894 589.700 L 374.096 590.800 195.562 590.800 C 21.583 590.800,17.007 590.781,16.214 590.050 C 14.089 588.094,10.910 584.787,10.100 583.691 L 9.200 582.473 9.207 300.137 L 9.215 17.800 10.311 16.182 C 12.131 13.499,15.670 10.265,17.638 9.485 C 17.947 9.363,98.224 9.249,196.030 9.232 L 373.861 9.200 374.758 10.156 M125.896 310.960 C 125.230 311.465,125.193 314.266,125.211 362.432 C 125.232 418.907,125.415 414.909,122.764 415.651 C 122.234 415.799,105.394 415.938,85.343 415.960 C 51.225 415.997,48.869 416.044,48.621 416.689 C 48.352 417.391,49.295 418.400,50.220 418.400 C 51.106 418.400,56.206 421.266,58.008 422.777 C 59.002 423.610,60.577 424.677,61.508 425.146 C 62.439 425.616,63.889 426.349,64.731 426.776 C 65.573 427.203,66.504 427.843,66.799 428.199 C 67.095 428.555,67.974 429.113,68.754 429.438 C 69.533 429.764,70.510 430.339,70.925 430.715 C 71.680 431.399,73.487 432.413,76.708 433.959 C 77.648 434.410,78.520 435.047,78.645 435.374 C 78.771 435.702,79.258 436.091,79.728 436.241 C 80.197 436.390,81.461 437.116,82.536 437.856 C 83.610 438.595,84.700 439.200,84.956 439.200 C 85.212 439.200,86.629 440.055,88.104 441.100 C 89.579 442.145,92.049 443.784,93.593 444.743 C 95.137 445.702,96.400 446.635,96.400 446.816 C 96.400 446.998,96.742 447.255,97.160 447.387 C 97.578 447.520,99.420 448.633,101.254 449.860 C 103.087 451.087,104.969 452.236,105.436 452.414 C 106.781 452.925,110.800 455.589,110.800 455.969 C 110.800 456.158,111.495 456.591,112.345 456.931 C 113.195 457.271,114.530 457.966,115.313 458.475 C 116.095 458.984,117.667 459.940,118.806 460.600 C 119.946 461.260,121.355 462.174,121.939 462.632 C 122.522 463.089,124.440 464.251,126.200 465.213 C 129.893 467.233,131.790 468.412,133.200 469.564 C 133.750 470.014,135.550 471.086,137.200 471.948 C 140.087 473.455,144.385 476.177,144.800 476.761 C 144.910 476.916,146.519 477.812,148.376 478.753 C 150.232 479.694,152.212 480.820,152.776 481.255 C 154.746 482.775,156.613 483.994,158.200 484.797 C 161.210 486.319,163.059 487.459,163.929 488.329 C 164.408 488.808,165.008 489.200,165.262 489.200 C 165.516 489.200,166.341 489.670,167.095 490.245 C 167.848 490.820,169.845 491.996,171.532 492.859 C 173.220 493.722,174.798 494.689,175.041 495.009 C 175.284 495.330,176.126 495.861,176.914 496.190 C 177.701 496.519,178.460 496.974,178.601 497.202 C 178.843 497.592,180.697 498.663,184.655 500.696 C 185.615 501.189,186.400 501.766,186.400 501.977 C 186.400 502.189,187.165 502.734,188.100 503.187 C 189.035 503.641,190.790 504.636,192.000 505.400 C 193.210 506.164,194.920 507.155,195.800 507.603 C 196.680 508.052,197.773 508.685,198.229 509.011 C 198.989 509.554,199.303 509.473,202.029 508.023 C 203.663 507.155,205.780 506.059,206.734 505.588 C 207.687 505.118,208.812 504.388,209.234 503.966 C 209.655 503.545,210.166 503.200,210.369 503.200 C 210.572 503.200,211.261 502.761,211.899 502.224 C 212.537 501.686,214.666 500.413,216.630 499.393 C 218.593 498.373,221.010 496.923,222.000 496.171 C 223.885 494.739,226.044 493.481,229.400 491.860 C 230.500 491.328,231.743 490.512,232.162 490.047 C 232.581 489.581,233.144 489.200,233.413 489.200 C 233.682 489.200,234.122 488.935,234.391 488.610 C 234.660 488.286,236.438 487.177,238.340 486.147 C 240.243 485.116,242.272 483.896,242.850 483.436 C 243.427 482.976,244.492 482.240,245.218 481.800 C 247.699 480.294,249.920 479.000,251.660 478.045 C 252.617 477.520,253.909 476.665,254.531 476.145 C 255.153 475.625,255.896 475.200,256.182 475.200 C 256.468 475.200,256.949 474.901,257.251 474.535 C 257.553 474.169,258.520 473.525,259.400 473.103 C 262.134 471.791,264.476 470.407,265.693 469.383 C 266.336 468.842,267.086 468.400,267.361 468.400 C 267.636 468.400,268.269 467.965,268.768 467.434 C 269.267 466.902,270.154 466.351,270.738 466.209 C 271.743 465.963,273.777 464.777,276.000 463.140 C 276.550 462.735,277.642 462.056,278.427 461.631 C 279.211 461.206,280.079 460.587,280.354 460.255 C 280.630 459.923,281.374 459.537,282.009 459.398 C 282.643 459.259,283.654 458.758,284.254 458.286 C 284.855 457.813,285.838 457.151,286.440 456.813 C 287.041 456.476,288.673 455.411,290.067 454.447 C 291.460 453.483,293.320 452.350,294.200 451.929 C 297.521 450.339,298.800 449.582,298.800 449.205 C 298.800 448.991,299.565 448.429,300.500 447.956 C 301.435 447.483,302.331 446.873,302.491 446.600 C 302.650 446.328,303.325 445.879,303.991 445.604 C 304.656 445.328,305.200 444.949,305.200 444.762 C 305.200 444.574,305.785 444.118,306.500 443.748 C 307.215 443.379,308.430 442.576,309.200 441.964 C 309.970 441.352,311.950 440.172,313.600 439.343 C 315.250 438.514,316.838 437.602,317.129 437.318 C 317.419 437.033,317.810 436.800,317.998 436.800 C 318.185 436.800,318.864 436.358,319.507 435.817 C 320.657 434.849,322.848 433.523,325.600 432.127 C 326.370 431.737,327.509 431.009,328.131 430.509 C 328.753 430.009,329.463 429.600,329.709 429.600 C 329.955 429.600,330.616 429.167,331.178 428.638 C 332.462 427.430,337.418 424.800,338.411 424.800 C 338.820 424.800,339.402 424.447,339.704 424.015 C 340.412 423.005,346.409 418.915,347.651 418.596 C 349.359 418.157,350.192 417.314,349.610 416.613 C 349.161 416.071,344.952 416.000,313.211 416.000 C 275.185 416.000,275.082 415.995,274.371 414.125 C 274.150 413.542,274.000 392.606,274.000 362.254 C 274.000 323.203,273.888 311.248,273.520 310.880 C 272.774 310.134,126.880 310.213,125.896 310.960 " stroke="none" fill="#040a06" fill-rule="evenodd"></path><path id="path2" d="M16.836 12.150 C 15.723 12.447,14.933 12.933,14.695 13.465 C 14.488 13.929,13.931 14.486,13.456 14.702 C 11.505 15.591,11.600 0.894,11.600 300.412 C 11.600 597.331,11.525 584.868,13.323 585.439 C 13.722 585.566,14.229 586.066,14.450 586.551 C 14.729 587.163,15.791 587.765,17.926 588.520 L 21.000 589.608 196.116 589.604 C 370.439 589.600,371.239 589.596,372.800 588.800 C 373.662 588.360,374.756 588.000,375.231 588.000 C 376.072 588.000,378.048 586.174,379.901 583.682 L 380.802 582.471 380.701 299.936 C 380.600 18.041,380.598 17.398,379.800 16.492 C 377.171 13.508,375.855 12.397,374.504 12.022 C 372.224 11.389,19.213 11.515,16.836 12.150 M363.024 26.187 C 363.451 26.510,364.111 26.780,364.491 26.787 C 366.521 26.825,366.414 20.757,366.303 129.723 L 366.200 230.778 365.289 231.689 L 364.378 232.600 196.095 232.600 L 27.811 232.600 26.503 230.600 L 25.194 228.600 25.297 129.129 L 25.400 29.659 26.223 28.529 C 26.676 27.908,27.839 26.995,28.808 26.500 L 30.570 25.600 196.408 25.600 C 341.605 25.600,362.344 25.673,363.024 26.187 M275.130 309.900 C 275.944 310.597,275.949 310.832,276.140 361.800 C 276.246 389.960,276.458 413.405,276.613 413.900 L 276.893 414.800 314.777 414.800 L 352.661 414.800 352.480 416.100 C 352.228 417.911,351.935 418.181,348.255 419.996 C 346.465 420.879,344.477 422.051,343.838 422.601 C 343.199 423.150,342.438 423.600,342.147 423.600 C 341.856 423.600,341.325 424.048,340.966 424.596 C 340.574 425.193,339.649 425.770,338.656 426.035 C 337.745 426.279,336.685 426.813,336.299 427.223 C 335.914 427.633,334.881 428.183,334.005 428.446 C 333.128 428.708,332.135 429.346,331.796 429.862 C 331.458 430.378,330.832 430.800,330.405 430.800 C 329.978 430.800,329.450 431.132,329.233 431.538 C 329.016 431.945,328.035 432.583,327.054 432.958 C 326.073 433.333,325.177 433.882,325.063 434.179 C 324.949 434.476,324.168 434.939,323.328 435.208 C 322.488 435.477,321.350 436.105,320.800 436.603 C 320.250 437.102,319.395 437.632,318.900 437.782 C 318.405 437.932,318.000 438.228,318.000 438.441 C 318.000 438.654,317.235 439.157,316.300 439.558 C 314.489 440.335,311.797 442.000,310.789 442.966 C 310.453 443.288,309.328 443.916,308.289 444.362 C 307.250 444.807,306.400 445.362,306.400 445.594 C 306.400 445.827,305.914 446.238,305.319 446.509 C 304.724 446.779,303.829 447.409,303.329 447.908 C 302.829 448.407,301.896 448.921,301.256 449.049 C 300.575 449.185,299.917 449.665,299.671 450.203 C 299.424 450.747,298.748 451.236,298.026 451.394 C 297.352 451.542,296.800 451.839,296.800 452.054 C 296.800 452.269,295.945 452.820,294.900 453.278 C 293.855 453.736,292.871 454.329,292.713 454.596 C 292.556 454.863,291.600 455.397,290.589 455.783 C 289.579 456.169,288.321 456.916,287.794 457.442 C 287.267 457.969,286.580 458.400,286.267 458.400 C 285.954 458.400,285.451 458.699,285.149 459.065 C 284.847 459.431,283.835 460.069,282.900 460.484 C 281.965 460.898,281.200 461.394,281.200 461.586 C 281.200 461.777,280.403 462.238,279.429 462.610 C 278.455 462.982,277.254 463.717,276.759 464.243 C 276.265 464.769,275.526 465.200,275.118 465.200 C 274.709 465.200,274.278 465.453,274.159 465.763 C 274.040 466.073,273.047 466.712,271.951 467.183 C 270.856 467.654,269.863 468.292,269.744 468.600 C 269.626 468.909,268.870 469.372,268.065 469.630 C 267.259 469.888,266.214 470.450,265.743 470.879 C 265.271 471.308,264.342 471.961,263.677 472.330 C 260.056 474.338,259.317 474.795,258.439 475.561 C 257.910 476.022,257.260 476.400,256.994 476.400 C 256.728 476.400,255.839 476.933,255.020 477.584 C 254.200 478.235,253.141 478.890,252.665 479.039 C 252.189 479.188,251.291 479.735,250.669 480.255 C 250.047 480.775,249.327 481.205,249.069 481.211 C 248.811 481.217,247.893 481.757,247.029 482.411 C 246.165 483.065,245.220 483.600,244.929 483.600 C 244.638 483.600,244.400 483.783,244.400 484.006 C 244.400 484.538,241.994 485.997,241.114 485.999 C 240.737 485.999,240.017 486.373,239.514 486.829 C 238.159 488.058,234.400 490.400,233.782 490.400 C 233.487 490.400,232.999 490.752,232.698 491.182 C 232.396 491.612,231.348 492.308,230.369 492.727 C 229.390 493.147,228.344 493.785,228.045 494.145 C 227.747 494.505,227.290 494.800,227.030 494.800 C 226.770 494.800,225.847 495.317,224.979 495.950 C 224.110 496.582,222.995 497.224,222.500 497.377 C 222.004 497.529,221.414 498.001,221.187 498.425 C 220.954 498.859,220.007 499.388,219.014 499.638 C 218.046 499.882,217.160 500.327,217.045 500.628 C 216.929 500.929,216.181 501.448,215.382 501.782 C 214.582 502.116,213.391 502.842,212.734 503.395 C 212.076 503.948,211.263 504.400,210.927 504.400 C 210.590 504.400,209.977 504.830,209.564 505.355 C 209.151 505.880,208.327 506.432,207.733 506.581 C 207.140 506.730,206.133 507.290,205.496 507.826 C 204.860 508.362,204.110 508.800,203.831 508.800 C 203.552 508.800,202.998 509.161,202.598 509.602 C 200.930 511.446,198.232 511.432,196.370 509.570 C 195.946 509.146,195.355 508.800,195.055 508.800 C 194.755 508.800,193.831 508.260,193.000 507.600 C 192.169 506.940,191.271 506.400,191.003 506.400 C 190.736 506.400,190.049 505.966,189.476 505.436 C 188.904 504.905,187.888 504.351,187.218 504.204 C 186.549 504.057,185.776 503.618,185.500 503.229 C 185.225 502.839,184.145 502.144,183.100 501.683 C 182.055 501.222,181.200 500.672,181.200 500.462 C 181.200 500.251,180.632 499.880,179.937 499.638 C 179.242 499.396,178.444 498.870,178.164 498.470 C 177.884 498.070,176.929 497.526,176.042 497.260 C 175.155 496.994,174.197 496.448,173.914 496.046 C 173.632 495.644,172.994 495.187,172.498 495.030 C 172.002 494.873,171.102 494.335,170.498 493.833 C 169.894 493.332,168.886 492.796,168.258 492.643 C 167.630 492.489,167.028 492.029,166.921 491.620 C 166.796 491.140,166.110 490.721,164.986 490.438 C 164.029 490.197,163.010 489.676,162.723 489.280 C 162.435 488.884,161.628 488.327,160.929 488.043 C 160.230 487.759,159.347 487.183,158.967 486.763 C 158.587 486.344,157.934 486.000,157.515 486.000 C 157.097 486.000,156.270 485.484,155.677 484.853 C 155.085 484.222,154.119 483.592,153.531 483.453 C 152.943 483.314,151.927 482.750,151.273 482.200 C 150.619 481.650,149.917 481.200,149.712 481.200 C 149.507 481.200,148.933 480.767,148.436 480.238 C 147.939 479.709,146.916 479.161,146.163 479.019 C 145.345 478.866,144.535 478.368,144.151 477.781 C 143.797 477.242,143.286 476.800,143.015 476.800 C 142.189 476.800,139.954 475.547,139.728 474.956 C 139.610 474.650,139.277 474.400,138.988 474.400 C 138.698 474.400,137.948 473.968,137.320 473.439 C 136.692 472.911,135.429 472.277,134.513 472.030 C 133.571 471.777,132.752 471.282,132.627 470.891 C 132.505 470.511,131.579 469.861,130.569 469.447 C 129.560 469.032,128.644 468.458,128.534 468.171 C 128.423 467.884,127.833 467.539,127.222 467.405 C 126.610 467.270,125.742 466.737,125.292 466.220 C 124.843 465.703,123.943 465.163,123.292 465.020 C 122.642 464.877,121.726 464.319,121.258 463.780 C 120.789 463.241,120.159 462.800,119.858 462.800 C 119.556 462.800,118.631 462.260,117.800 461.600 C 116.969 460.940,116.036 460.400,115.726 460.400 C 115.416 460.400,114.765 459.974,114.281 459.452 C 113.796 458.931,112.798 458.373,112.063 458.212 C 111.327 458.052,110.350 457.488,109.890 456.960 C 109.431 456.432,108.843 456.000,108.583 456.000 C 108.323 456.000,107.431 455.460,106.600 454.800 C 105.769 454.140,104.837 453.600,104.527 453.600 C 104.217 453.600,103.545 453.181,103.034 452.670 C 102.522 452.158,101.553 451.512,100.881 451.233 C 100.208 450.955,99.347 450.383,98.967 449.963 C 98.587 449.544,98.026 449.200,97.720 449.200 C 97.414 449.200,96.712 448.748,96.160 448.196 C 95.608 447.644,94.505 446.920,93.710 446.588 C 92.915 446.256,92.015 445.628,91.709 445.192 C 91.404 444.756,90.818 444.400,90.406 444.400 C 89.995 444.400,89.330 443.995,88.929 443.500 C 88.528 443.005,87.315 442.150,86.234 441.600 C 82.912 439.910,82.240 439.511,81.069 438.539 C 80.447 438.023,79.674 437.600,79.351 437.600 C 79.028 437.600,78.322 437.159,77.783 436.619 C 77.243 436.080,76.036 435.264,75.101 434.806 C 71.958 433.269,71.005 432.703,70.000 431.778 C 69.450 431.271,68.518 430.738,67.929 430.593 C 67.341 430.447,66.542 429.978,66.154 429.550 C 65.767 429.121,64.719 428.409,63.825 427.966 C 61.112 426.621,59.557 425.697,58.657 424.895 C 58.186 424.475,57.150 423.835,56.355 423.473 C 55.560 423.111,54.683 422.541,54.406 422.207 C 54.129 421.873,53.699 421.597,53.451 421.593 C 53.203 421.589,52.208 421.049,51.240 420.393 C 50.272 419.737,49.153 419.200,48.754 419.200 C 47.897 419.200,47.200 418.056,47.200 416.650 C 47.200 416.098,46.975 415.502,46.700 415.324 C 46.425 415.146,63.336 414.910,84.280 414.800 C 114.780 414.640,122.464 414.497,122.880 414.080 C 123.299 413.661,123.439 403.517,123.600 361.765 C 123.776 316.307,123.873 309.924,124.400 309.591 C 125.663 308.793,274.191 309.097,275.130 309.900 " stroke="none" fill="#fbfbfb" fill-rule="evenodd"></path><path id="path3" d="M16.908 11.499 C 15.486 12.082,14.318 12.829,14.187 13.240 C 14.062 13.635,13.644 14.059,13.260 14.181 C 12.875 14.303,12.074 15.499,11.479 16.839 L 10.398 19.275 10.499 300.737 L 10.600 582.200 11.444 583.675 C 12.419 585.379,14.490 587.543,15.855 588.286 C 16.375 588.569,17.295 589.069,17.900 589.398 C 18.871 589.925,39.709 589.995,195.624 589.998 L 372.248 590.000 375.109 588.591 C 377.436 587.444,378.270 586.761,379.585 584.926 L 381.200 582.670 381.200 300.785 C 381.200 145.748,381.087 18.335,380.949 17.645 C 380.562 15.709,377.389 12.658,374.497 11.441 L 372.024 10.400 195.712 10.439 L 19.400 10.477 16.908 11.499 M374.504 12.022 C 375.855 12.397,377.171 13.508,379.800 16.492 C 380.598 17.398,380.600 18.041,380.701 299.936 L 380.802 582.471 379.901 583.682 C 378.048 586.174,376.072 588.000,375.231 588.000 C 374.756 588.000,373.662 588.360,372.800 588.800 C 371.239 589.596,370.439 589.600,196.116 589.604 L 21.000 589.608 17.926 588.520 C 15.791 587.765,14.729 587.163,14.450 586.551 C 14.229 586.066,13.722 585.566,13.323 585.439 C 11.525 584.868,11.600 597.331,11.600 300.412 C 11.600 0.894,11.505 15.591,13.456 14.702 C 13.931 14.486,14.488 13.929,14.695 13.465 C 14.933 12.933,15.723 12.447,16.836 12.150 C 19.213 11.515,372.224 11.389,374.504 12.022 M28.808 26.500 C 27.839 26.995,26.676 27.908,26.223 28.529 L 25.400 29.659 25.297 129.129 L 25.194 228.600 26.503 230.600 L 27.811 232.600 196.095 232.600 L 364.378 232.600 365.289 231.689 L 366.200 230.778 366.303 129.723 C 366.414 20.761,366.520 26.776,364.491 26.812 C 363.898 26.823,363.913 26.888,364.600 27.278 C 365.040 27.527,365.532 27.927,365.694 28.166 C 365.856 28.405,365.991 73.741,365.994 128.913 C 366.001 239.138,366.175 231.625,363.595 232.141 C 361.906 232.479,29.074 232.480,28.194 232.142 C 25.853 231.244,26.000 238.096,26.000 129.713 C 26.000 24.537,25.922 28.593,27.958 27.260 C 28.889 26.649,41.484 26.600,196.290 26.600 C 330.248 26.600,363.478 26.500,362.931 26.100 C 362.386 25.702,328.448 25.600,196.408 25.600 L 30.570 25.600 28.808 26.500 M124.400 309.591 C 123.873 309.924,123.776 316.307,123.600 361.765 C 123.439 403.517,123.299 413.661,122.880 414.080 C 122.464 414.497,114.780 414.640,84.280 414.800 C 63.336 414.910,46.425 415.146,46.700 415.324 C 46.975 415.502,47.200 416.098,47.200 416.650 C 47.200 418.026,47.892 419.200,48.703 419.200 C 49.238 419.200,49.188 419.067,48.467 418.562 C 47.783 418.083,47.586 417.607,47.678 416.662 L 47.800 415.400 85.388 415.200 L 122.976 415.000 123.482 414.000 C 123.882 413.210,123.989 402.349,123.994 362.189 C 124.001 306.546,123.855 309.858,126.304 309.486 C 127.398 309.320,127.398 309.320,126.200 309.266 C 125.540 309.236,124.730 309.383,124.400 309.591 M273.496 309.482 C 275.714 309.909,275.599 307.054,275.606 362.189 C 275.611 402.348,275.718 413.210,276.118 414.000 L 276.624 415.000 313.726 415.200 C 353.208 415.413,351.819 415.340,351.497 417.183 C 351.412 417.670,347.641 419.901,344.100 421.559 C 343.605 421.791,343.200 422.143,343.200 422.342 C 343.200 422.540,342.653 422.929,341.985 423.206 C 341.316 423.483,340.600 424.027,340.392 424.415 C 340.185 424.802,339.246 425.382,338.307 425.703 C 337.368 426.023,335.900 426.761,335.044 427.343 C 334.188 427.924,333.275 428.400,333.014 428.400 C 332.753 428.400,332.117 428.850,331.600 429.400 C 331.083 429.950,330.436 430.400,330.161 430.400 C 329.886 430.400,329.153 430.819,328.531 431.332 C 327.909 431.844,325.960 433.041,324.200 433.991 C 322.440 434.941,320.640 436.016,320.200 436.380 C 319.290 437.134,314.591 440.000,314.265 440.000 C 314.148 440.000,312.572 440.990,310.764 442.200 C 308.957 443.410,307.244 444.400,306.959 444.400 C 306.673 444.400,306.289 444.669,306.106 444.997 C 305.922 445.325,304.536 446.405,303.026 447.397 C 301.517 448.389,300.533 449.199,300.841 449.199 C 301.623 449.196,304.000 447.697,304.000 447.206 C 304.000 446.983,304.279 446.800,304.619 446.800 C 304.960 446.800,305.636 446.371,306.123 445.846 C 306.609 445.321,307.716 444.595,308.582 444.233 C 309.448 443.872,310.436 443.307,310.778 442.978 C 311.793 442.002,314.479 440.339,316.300 439.558 C 317.235 439.157,318.000 438.654,318.000 438.441 C 318.000 438.228,318.405 437.932,318.900 437.782 C 319.395 437.632,320.250 437.102,320.800 436.603 C 321.350 436.105,322.488 435.477,323.328 435.208 C 324.168 434.939,324.949 434.476,325.063 434.179 C 325.177 433.882,326.073 433.333,327.054 432.958 C 328.035 432.583,329.016 431.945,329.233 431.538 C 329.450 431.132,329.978 430.800,330.405 430.800 C 330.832 430.800,331.458 430.378,331.796 429.862 C 332.135 429.346,333.128 428.708,334.005 428.446 C 334.881 428.183,335.914 427.633,336.299 427.223 C 336.685 426.813,337.745 426.279,338.656 426.035 C 339.649 425.770,340.574 425.193,340.966 424.596 C 341.325 424.048,341.856 423.600,342.147 423.600 C 342.438 423.600,343.199 423.150,343.838 422.601 C 344.477 422.051,346.465 420.879,348.255 419.996 C 351.935 418.181,352.228 417.911,352.480 416.100 L 352.661 414.800 314.777 414.800 L 276.893 414.800 276.613 413.900 C 276.458 413.405,276.246 389.960,276.140 361.800 C 275.926 304.845,276.143 309.083,273.456 309.254 C 272.626 309.307,272.627 309.314,273.496 309.482 M51.240 420.393 C 52.208 421.049,53.203 421.589,53.451 421.593 C 53.699 421.597,54.129 421.873,54.406 422.207 C 54.683 422.541,55.560 423.111,56.355 423.473 C 57.150 423.835,58.186 424.475,58.657 424.895 C 59.557 425.697,61.112 426.621,63.825 427.966 C 64.719 428.409,65.767 429.121,66.154 429.550 C 66.542 429.978,67.341 430.447,67.929 430.593 C 68.518 430.738,69.450 431.271,70.000 431.778 C 71.005 432.703,71.958 433.269,75.101 434.806 C 76.036 435.264,77.243 436.080,77.783 436.619 C 78.322 437.159,79.017 437.600,79.327 437.600 C 79.637 437.600,80.569 438.140,81.400 438.800 C 82.231 439.460,83.072 440.000,83.269 440.000 C 83.911 440.000,81.036 437.760,79.713 437.230 C 79.006 436.946,78.210 436.453,77.944 436.133 C 77.679 435.814,76.818 435.224,76.031 434.823 C 72.688 433.119,71.428 432.379,70.638 431.657 C 70.177 431.235,69.080 430.508,68.200 430.041 C 67.320 429.574,65.520 428.513,64.200 427.684 C 62.880 426.854,61.215 425.934,60.500 425.639 C 59.785 425.344,59.200 424.965,59.200 424.797 C 59.200 424.629,57.895 423.723,56.300 422.783 C 54.705 421.844,52.760 420.653,51.978 420.138 C 51.197 419.622,50.315 419.200,50.018 419.200 C 49.722 419.200,50.272 419.737,51.240 420.393 M84.162 440.338 C 84.480 440.854,87.592 442.541,87.814 442.319 C 87.992 442.141,85.625 440.529,84.634 440.154 C 84.096 439.950,83.956 440.005,84.162 440.338 M88.400 442.750 C 88.400 443.290,89.818 444.400,90.509 444.400 C 90.864 444.400,91.404 444.756,91.709 445.192 C 92.015 445.628,92.970 446.277,93.832 446.635 C 94.694 446.993,95.553 447.554,95.741 447.881 C 95.928 448.207,96.648 448.736,97.341 449.055 C 98.033 449.374,99.212 450.077,99.959 450.617 C 100.707 451.158,101.498 451.600,101.718 451.600 C 102.270 451.600,99.763 449.809,97.700 448.730 C 96.765 448.241,96.000 447.701,96.000 447.531 C 96.000 447.360,95.415 446.920,94.700 446.552 C 93.985 446.185,92.950 445.541,92.400 445.121 C 90.499 443.669,88.400 442.425,88.400 442.750 M299.455 449.801 C 299.321 450.150,298.624 450.710,297.906 451.044 C 297.188 451.378,295.430 452.354,294.000 453.214 C 292.570 454.073,290.680 455.138,289.800 455.579 C 288.920 456.021,288.410 456.386,288.667 456.391 C 289.456 456.406,292.800 454.851,292.800 454.469 C 292.800 454.271,293.623 453.794,294.630 453.410 C 295.636 453.026,296.551 452.472,296.663 452.180 C 296.775 451.888,297.393 451.533,298.037 451.392 C 299.098 451.159,300.329 449.796,299.882 449.348 C 299.781 449.248,299.589 449.451,299.455 449.801 M102.483 452.086 C 102.570 452.369,103.364 452.960,104.248 453.400 C 105.132 453.840,106.362 454.605,106.981 455.100 C 107.601 455.595,108.343 456.000,108.631 456.000 C 108.919 456.000,109.406 456.359,109.714 456.799 C 110.308 457.646,112.672 458.661,113.087 458.246 C 113.223 458.111,113.058 458.000,112.722 458.000 C 112.385 458.000,111.467 457.505,110.682 456.900 C 109.896 456.295,108.327 455.260,107.194 454.600 C 106.062 453.940,104.503 452.989,103.730 452.486 C 102.925 451.963,102.392 451.792,102.483 452.086 M286.341 457.946 C 279.986 461.551,277.498 463.048,276.830 463.670 C 276.517 463.961,275.887 464.419,275.430 464.686 C 274.811 465.048,274.760 465.175,275.230 465.186 C 275.577 465.194,276.265 464.769,276.759 464.243 C 277.254 463.717,278.455 462.982,279.429 462.610 C 280.403 462.238,281.200 461.777,281.200 461.586 C 281.200 461.394,281.965 460.898,282.900 460.484 C 283.835 460.069,284.847 459.431,285.149 459.065 C 285.451 458.699,285.926 458.400,286.205 458.400 C 286.483 458.400,287.136 458.046,287.656 457.613 C 288.884 456.590,288.608 456.660,286.341 457.946 M113.980 459.162 C 114.202 459.577,114.940 460.110,115.621 460.348 C 116.303 460.585,117.400 461.234,118.061 461.790 C 118.721 462.345,119.510 462.800,119.815 462.800 C 120.119 462.800,120.780 463.231,121.284 463.757 C 121.788 464.283,122.650 464.837,123.200 464.988 C 124.421 465.322,122.223 463.745,117.643 461.000 C 116.909 460.560,115.694 459.797,114.942 459.304 C 113.723 458.504,113.619 458.489,113.980 459.162 M125.258 466.180 C 125.726 466.719,126.610 467.270,127.222 467.405 C 127.833 467.539,128.423 467.884,128.534 468.171 C 128.644 468.458,129.560 469.032,130.569 469.447 C 131.579 469.861,132.505 470.511,132.627 470.891 C 132.752 471.282,133.571 471.777,134.513 472.030 C 135.429 472.277,136.692 472.911,137.320 473.439 C 137.948 473.968,138.698 474.400,138.988 474.400 C 139.277 474.400,139.610 474.650,139.728 474.956 C 139.845 475.262,140.522 475.802,141.232 476.156 C 143.407 477.241,143.391 476.875,141.200 475.400 C 140.056 474.630,139.020 474.000,138.898 474.000 C 138.775 474.000,138.119 473.577,137.438 473.061 C 136.757 472.544,135.524 471.900,134.697 471.629 C 133.870 471.358,133.009 470.790,132.783 470.368 C 132.557 469.946,132.166 469.600,131.915 469.600 C 131.515 469.600,129.782 468.540,125.916 465.931 C 124.443 464.937,124.242 465.013,125.258 466.180 M272.531 466.134 C 271.833 466.610,270.340 467.540,269.213 468.200 C 266.573 469.746,263.967 471.700,264.215 471.948 C 264.321 472.055,264.901 471.682,265.504 471.119 C 266.107 470.557,267.259 469.886,268.065 469.629 C 268.870 469.372,269.626 468.909,269.744 468.600 C 269.863 468.292,270.856 467.654,271.951 467.183 C 273.047 466.712,274.040 466.073,274.159 465.763 C 274.449 465.008,274.048 465.099,272.531 466.134 M260.200 473.800 C 258.660 474.778,256.860 475.878,256.200 476.245 C 255.540 476.612,254.491 477.337,253.869 477.856 C 253.247 478.375,252.555 478.800,252.330 478.800 C 251.818 478.800,247.270 481.557,246.225 482.500 C 245.798 482.885,245.235 483.200,244.974 483.200 C 244.712 483.200,244.264 483.482,243.977 483.827 C 243.691 484.172,242.814 484.794,242.029 485.209 C 241.243 485.625,240.870 485.972,241.200 485.981 C 241.998 486.002,244.400 484.520,244.400 484.006 C 244.400 483.783,244.638 483.600,244.929 483.600 C 245.220 483.600,246.165 483.065,247.029 482.411 C 247.893 481.757,248.811 481.217,249.069 481.211 C 249.327 481.205,250.047 480.775,250.669 480.255 C 251.291 479.735,252.189 479.188,252.665 479.039 C 253.141 478.890,254.200 478.235,255.020 477.584 C 255.839 476.933,256.728 476.400,256.994 476.400 C 257.260 476.400,257.910 476.023,258.439 475.562 C 258.967 475.101,259.940 474.445,260.600 474.105 C 261.260 473.765,262.229 473.152,262.754 472.743 C 264.480 471.398,263.052 471.989,260.200 473.800 M143.964 477.533 C 144.471 478.480,146.207 479.356,146.961 479.045 C 147.202 478.945,147.099 478.849,146.731 478.832 C 146.363 478.814,145.480 478.311,144.770 477.714 C 143.578 476.711,143.517 476.697,143.964 477.533 M148.200 479.978 C 148.640 480.481,149.360 481.056,149.800 481.256 C 150.240 481.456,151.212 482.066,151.959 482.610 C 152.707 483.155,153.601 483.600,153.947 483.600 C 154.292 483.600,153.501 482.948,152.187 482.151 C 150.874 481.355,149.260 480.334,148.600 479.884 L 147.400 479.064 148.200 479.978 M155.363 484.488 C 156.065 485.559,157.442 486.292,157.897 485.837 C 158.027 485.706,157.937 485.600,157.697 485.600 C 157.458 485.600,156.675 485.107,155.958 484.503 L 154.655 483.407 155.363 484.488 M158.929 486.701 C 159.330 487.155,160.230 487.759,160.929 488.043 C 161.628 488.327,162.430 488.877,162.712 489.264 C 162.993 489.652,163.883 490.151,164.689 490.374 C 166.544 490.886,166.870 490.642,165.138 490.038 C 164.421 489.788,163.467 489.257,163.017 488.858 C 161.574 487.577,158.071 485.728,158.929 486.701 M239.413 486.379 C 239.266 486.617,238.413 487.185,237.517 487.643 C 236.621 488.100,235.519 488.817,235.068 489.237 C 234.618 489.657,234.041 490.000,233.787 490.000 C 233.532 490.000,233.013 490.343,232.633 490.763 C 232.254 491.183,231.101 491.913,230.071 492.387 C 227.537 493.553,221.875 497.072,220.770 498.168 C 220.423 498.512,219.523 499.000,218.770 499.253 C 218.016 499.506,217.130 499.937,216.800 500.210 C 216.470 500.483,215.480 501.095,214.600 501.569 C 212.173 502.878,210.189 504.400,210.910 504.400 C 211.256 504.400,212.076 503.948,212.734 503.395 C 213.391 502.842,214.582 502.116,215.382 501.782 C 216.181 501.448,216.929 500.929,217.045 500.628 C 217.160 500.327,218.046 499.882,219.014 499.638 C 220.007 499.388,220.954 498.859,221.187 498.425 C 221.414 498.001,222.004 497.529,222.500 497.377 C 222.995 497.224,224.110 496.582,224.979 495.950 C 225.847 495.317,226.770 494.800,227.030 494.800 C 227.290 494.800,227.747 494.505,228.045 494.145 C 228.344 493.785,229.390 493.147,230.369 492.727 C 231.348 492.308,232.396 491.612,232.698 491.182 C 232.999 490.752,233.487 490.400,233.782 490.400 C 234.078 490.400,235.283 489.774,236.460 489.010 C 239.781 486.853,240.219 486.501,239.940 486.214 C 239.797 486.067,239.560 486.141,239.413 486.379 M166.800 491.524 C 166.800 492.105,168.304 492.909,168.922 492.658 C 169.238 492.529,169.207 492.452,168.831 492.432 C 168.519 492.414,167.934 492.102,167.531 491.738 C 167.119 491.365,166.800 491.271,166.800 491.524 M170.167 493.563 C 170.547 493.983,171.430 494.559,172.129 494.843 C 172.828 495.127,173.632 495.679,173.914 496.068 C 174.197 496.458,175.155 496.994,176.042 497.260 C 176.929 497.526,177.884 498.070,178.164 498.470 C 178.444 498.870,179.242 499.396,179.937 499.638 C 180.632 499.880,181.200 500.251,181.200 500.462 C 181.200 500.672,182.046 501.219,183.080 501.676 C 184.113 502.134,185.238 502.836,185.580 503.237 C 185.921 503.638,186.740 504.071,187.400 504.200 L 188.600 504.434 187.351 503.717 C 186.118 503.009,184.759 502.139,182.788 500.796 C 182.231 500.416,181.016 499.718,180.088 499.245 C 179.159 498.771,178.400 498.232,178.400 498.046 C 178.400 497.861,177.612 497.408,176.649 497.040 C 175.686 496.672,174.578 496.018,174.187 495.586 C 173.796 495.154,173.296 494.800,173.076 494.800 C 172.856 494.800,172.086 494.350,171.364 493.800 C 169.809 492.613,169.198 492.493,170.167 493.563 M188.800 504.724 C 188.800 505.115,190.777 506.572,190.982 506.332 C 191.044 506.259,190.578 505.781,189.947 505.270 C 189.316 504.758,188.800 504.512,188.800 504.724 M209.002 505.198 C 208.603 505.639,208.065 506.000,207.807 506.000 C 207.371 506.000,204.936 507.445,202.277 509.282 C 200.734 510.348,198.561 510.657,197.691 509.934 C 196.750 509.152,192.151 506.400,191.785 506.400 C 191.623 506.400,192.169 506.940,193.000 507.600 C 193.831 508.260,194.755 508.800,195.055 508.800 C 195.355 508.800,195.946 509.146,196.370 509.570 C 198.232 511.432,200.930 511.446,202.598 509.602 C 202.998 509.161,203.552 508.800,203.831 508.800 C 204.110 508.800,204.860 508.362,205.496 507.826 C 206.133 507.290,207.123 506.734,207.697 506.590 C 208.763 506.323,210.290 504.957,209.928 504.595 C 209.818 504.485,209.402 504.756,209.002 505.198 " stroke="none" fill="#bcacbc" fill-rule="evenodd"></path><path id="path4" d="M0.000 6.400 C 0.000 11.822,0.092 12.800,0.600 12.800 C 0.987 12.800,1.202 12.409,1.205 11.700 C 1.215 9.806,1.675 8.752,2.655 8.379 C 3.224 8.163,3.600 7.694,3.600 7.200 C 3.600 6.692,3.983 6.235,4.607 5.997 C 5.161 5.787,5.787 5.161,5.997 4.607 C 6.240 3.968,6.690 3.600,7.228 3.600 C 7.729 3.600,8.158 3.284,8.278 2.825 C 8.480 2.053,10.254 1.200,11.660 1.200 C 12.067 1.200,12.400 0.930,12.400 0.600 C 12.400 0.092,11.444 0.000,6.200 0.000 L 0.000 0.000 0.000 6.400 M380.000 0.600 C 380.000 0.998,380.398 1.200,381.181 1.200 C 381.988 1.200,382.778 1.621,383.681 2.533 C 384.406 3.266,385.319 3.982,385.709 4.124 C 386.099 4.266,386.539 4.697,386.687 5.082 C 386.835 5.467,387.551 6.377,388.278 7.104 C 389.010 7.836,389.600 8.839,389.600 9.349 C 389.600 9.930,389.949 10.431,390.543 10.701 C 391.568 11.168,392.000 12.562,392.000 15.404 C 392.000 16.780,392.192 17.234,393.000 17.763 L 394.000 18.418 394.000 299.836 C 394.000 512.271,393.886 581.465,393.537 582.118 C 393.282 582.594,392.832 583.225,392.537 583.520 C 392.242 583.816,391.996 584.719,391.990 585.529 C 391.976 587.821,391.314 590.140,390.482 590.814 C 390.065 591.152,389.547 591.962,389.331 592.614 C 389.087 593.349,388.616 593.847,388.093 593.925 C 387.514 594.010,387.209 594.388,387.124 595.125 C 387.027 595.969,386.758 596.228,385.876 596.329 C 385.258 596.400,384.652 596.721,384.528 597.044 C 384.248 597.774,382.314 598.800,381.220 598.800 C 380.758 598.800,380.400 599.062,380.400 599.400 C 380.400 599.917,381.756 600.000,390.200 600.000 L 400.000 600.000 400.000 300.000 L 400.000 0.000 390.000 0.000 C 381.378 0.000,380.000 0.083,380.000 0.600 M16.676 10.621 C 14.322 11.874,12.137 14.013,10.692 16.479 L 9.600 18.342 9.600 300.230 L 9.600 582.117 10.985 584.204 C 12.273 586.144,13.356 587.214,16.349 589.500 L 17.527 590.400 195.463 590.411 L 373.400 590.423 375.800 589.131 C 377.120 588.421,378.920 587.043,379.800 586.068 L 381.400 584.296 381.509 300.848 C 381.569 144.952,381.518 16.984,381.396 16.476 C 381.063 15.099,378.123 12.103,376.616 11.605 C 375.891 11.366,374.977 10.817,374.586 10.385 C 373.883 9.607,372.232 9.600,196.235 9.600 L 18.594 9.600 16.676 10.621 M374.497 11.441 C 377.389 12.658,380.562 15.709,380.949 17.645 C 381.087 18.335,381.200 145.748,381.200 300.785 L 381.200 582.670 379.585 584.926 C 378.270 586.761,377.436 587.444,375.109 588.591 L 372.248 590.000 195.624 589.998 C 39.709 589.995,18.871 589.925,17.900 589.398 C 17.295 589.069,16.375 588.569,15.855 588.286 C 14.490 587.543,12.419 585.379,11.444 583.675 L 10.600 582.200 10.499 300.737 L 10.398 19.275 11.479 16.839 C 12.074 15.499,12.875 14.303,13.260 14.181 C 13.644 14.059,14.062 13.635,14.187 13.240 C 14.318 12.829,15.486 12.082,16.908 11.499 L 19.400 10.477 195.712 10.439 L 372.024 10.400 374.497 11.441 M29.256 26.799 C 27.640 27.181,27.051 27.761,26.453 29.560 C 25.536 32.312,25.837 227.954,26.761 230.109 C 27.180 231.086,27.824 232.000,28.194 232.142 C 29.074 232.480,361.906 232.479,363.595 232.141 C 366.175 231.625,366.000 239.142,366.000 128.841 C 366.000 39.163,365.935 28.392,365.387 27.844 C 365.049 27.506,364.104 27.044,363.287 26.817 C 361.500 26.321,31.355 26.303,29.256 26.799 M364.720 28.080 C 365.390 28.750,365.421 228.677,364.751 230.147 C 364.063 231.659,372.229 231.589,195.490 231.595 L 28.380 231.600 27.988 230.570 C 27.195 228.484,27.477 28.686,28.273 28.100 C 29.249 27.382,364.003 27.363,364.720 28.080 M126.304 309.484 C 123.855 309.860,124.000 306.545,123.998 362.189 C 123.995 405.543,123.911 413.161,123.421 414.100 C 122.626 415.624,123.040 415.482,124.004 413.900 C 124.784 412.622,124.797 411.737,124.799 361.749 C 124.800 314.938,124.853 310.854,125.461 310.349 C 126.016 309.889,137.993 309.783,199.402 309.696 L 272.681 309.592 273.736 310.421 L 274.791 311.251 274.896 362.661 L 275.000 414.071 275.944 414.835 C 276.859 415.576,278.048 415.600,313.416 415.600 C 346.179 415.600,350.008 415.665,350.575 416.232 C 351.447 417.104,351.155 417.411,347.907 419.047 C 344.989 420.516,341.488 422.722,340.359 423.803 C 340.006 424.140,338.206 425.193,336.359 426.143 C 334.511 427.092,331.810 428.690,330.357 429.693 C 328.903 430.696,326.361 432.260,324.707 433.167 C 323.054 434.074,320.248 435.758,318.470 436.908 C 316.693 438.059,313.925 439.770,312.320 440.712 C 309.237 442.519,307.197 443.830,304.407 445.800 C 303.472 446.460,302.100 447.372,301.358 447.826 C 300.616 448.281,299.602 449.025,299.104 449.480 C 298.607 449.934,297.586 450.642,296.835 451.053 C 296.085 451.464,294.703 452.250,293.765 452.800 C 292.827 453.350,291.281 454.230,290.330 454.755 C 289.378 455.280,288.091 456.135,287.469 456.655 C 286.847 457.175,286.110 457.600,285.831 457.600 C 285.552 457.600,284.998 457.960,284.600 458.400 C 284.202 458.840,283.679 459.203,283.438 459.207 C 283.001 459.213,278.290 461.962,276.398 463.313 C 274.381 464.755,272.356 466.000,272.027 466.000 C 271.842 466.000,270.774 466.630,269.655 467.400 C 268.535 468.170,267.525 468.800,267.411 468.800 C 267.296 468.800,266.325 469.430,265.253 470.200 C 264.181 470.970,263.205 471.600,263.084 471.600 C 262.703 471.600,255.438 476.084,254.595 476.840 C 254.152 477.237,253.162 477.839,252.395 478.178 C 251.628 478.518,250.010 479.420,248.800 480.184 C 247.590 480.948,246.060 481.870,245.400 482.233 C 244.740 482.596,243.840 483.204,243.400 483.583 C 242.960 483.962,241.160 485.049,239.400 485.997 C 237.640 486.946,235.643 488.145,234.962 488.661 C 234.281 489.177,233.539 489.600,233.311 489.600 C 233.084 489.600,232.674 489.869,232.401 490.199 C 232.128 490.528,230.261 491.703,228.252 492.809 C 226.244 493.916,223.610 495.521,222.400 496.375 C 221.190 497.229,218.760 498.681,217.000 499.602 C 215.240 500.523,213.473 501.568,213.073 501.925 C 212.301 502.613,211.750 502.954,205.907 506.361 C 203.868 507.550,201.930 508.741,201.600 509.008 C 200.419 509.962,198.818 510.067,197.680 509.265 C 197.086 508.847,195.880 508.117,195.000 507.642 C 194.120 507.168,191.690 505.709,189.600 504.399 C 187.510 503.090,184.990 501.558,184.000 500.996 C 183.010 500.434,181.390 499.446,180.400 498.801 C 179.410 498.155,177.880 497.241,177.000 496.768 C 176.120 496.296,175.038 495.579,174.595 495.174 C 174.152 494.769,173.162 494.147,172.395 493.792 C 171.057 493.171,169.599 492.325,166.901 490.600 C 163.413 488.371,160.470 486.602,158.094 485.306 C 157.192 484.814,156.339 484.225,156.199 483.998 C 156.058 483.771,155.101 483.129,154.072 482.573 C 153.042 482.016,151.210 480.946,150.000 480.193 C 148.790 479.441,147.350 478.600,146.800 478.325 C 145.629 477.738,142.235 475.563,140.800 474.480 C 140.250 474.065,138.360 472.958,136.600 472.020 C 134.840 471.081,133.310 470.173,133.200 470.001 C 132.951 469.613,130.014 467.805,125.705 465.389 C 123.893 464.373,122.306 463.371,122.177 463.163 C 122.049 462.955,121.101 462.333,120.072 461.780 C 119.042 461.228,117.210 460.153,116.000 459.392 C 114.790 458.630,113.080 457.643,112.200 457.197 C 111.320 456.751,109.475 455.624,108.100 454.693 C 106.725 453.762,104.852 452.550,103.937 452.000 C 101.705 450.657,97.282 447.835,95.800 446.808 C 92.502 444.521,91.445 443.840,87.000 441.140 C 80.985 437.487,79.661 436.644,78.359 435.639 C 77.786 435.198,76.796 434.610,76.159 434.334 C 75.521 434.058,73.920 433.126,72.600 432.264 C 69.768 430.414,65.550 427.865,62.200 425.981 C 60.880 425.239,58.956 423.994,57.925 423.216 C 56.894 422.437,54.314 420.921,52.192 419.847 C 48.206 417.829,47.562 417.209,48.402 416.197 C 48.829 415.683,53.717 415.590,85.347 415.499 L 121.800 415.394 84.800 415.397 L 47.800 415.400 47.678 416.662 C 47.551 417.966,48.664 419.200,49.968 419.200 C 50.292 419.200,51.197 419.622,51.978 420.138 C 52.760 420.653,54.705 421.844,56.300 422.783 C 57.895 423.723,59.200 424.629,59.200 424.797 C 59.200 424.965,59.785 425.344,60.500 425.639 C 61.215 425.934,62.880 426.854,64.200 427.684 C 65.520 428.513,67.320 429.574,68.200 430.041 C 69.080 430.508,70.177 431.235,70.638 431.657 C 71.428 432.379,72.688 433.119,76.031 434.823 C 76.818 435.224,77.679 435.814,77.944 436.133 C 78.210 436.453,79.006 436.946,79.713 437.230 C 80.421 437.513,81.591 438.253,82.314 438.873 C 83.037 439.493,83.859 440.000,84.142 440.000 C 84.638 440.000,90.350 443.538,92.400 445.115 C 92.950 445.538,93.985 446.185,94.700 446.552 C 95.415 446.920,96.000 447.374,96.000 447.562 C 96.000 447.749,96.546 448.129,97.213 448.405 C 97.880 448.682,99.038 449.378,99.786 449.954 C 100.534 450.529,102.071 451.540,103.200 452.200 C 105.860 453.754,108.311 455.264,109.742 456.230 C 111.089 457.139,113.551 458.584,116.284 460.069 C 117.365 460.657,118.486 461.422,118.774 461.769 C 119.062 462.116,119.532 462.400,119.818 462.400 C 120.104 462.400,120.876 462.852,121.534 463.405 C 122.191 463.958,123.330 464.682,124.064 465.013 C 124.799 465.344,126.480 466.328,127.800 467.199 C 129.120 468.070,130.763 469.051,131.451 469.377 C 132.140 469.703,132.802 470.229,132.923 470.545 C 133.045 470.861,133.832 471.345,134.672 471.620 C 135.512 471.896,136.740 472.500,137.400 472.962 C 138.711 473.880,139.300 474.251,142.000 475.860 C 142.990 476.450,144.160 477.246,144.600 477.628 C 145.040 478.010,146.030 478.610,146.800 478.961 C 148.415 479.697,154.932 483.651,155.928 484.499 C 156.298 484.814,157.860 485.759,159.400 486.599 C 160.940 487.440,162.709 488.549,163.331 489.064 C 163.953 489.579,164.711 490.000,165.017 490.000 C 165.322 490.000,166.163 490.516,166.886 491.146 C 167.609 491.776,168.650 492.432,169.200 492.604 C 169.750 492.775,170.757 493.339,171.438 493.858 C 172.119 494.376,172.856 494.800,173.076 494.800 C 173.296 494.800,173.796 495.154,174.187 495.586 C 174.578 496.018,175.686 496.672,176.649 497.040 C 177.612 497.408,178.400 497.861,178.400 498.048 C 178.400 498.234,179.255 498.849,180.300 499.413 C 183.038 500.893,185.039 502.133,185.873 502.866 C 186.273 503.218,186.989 503.624,187.465 503.769 C 187.941 503.913,189.000 504.565,189.820 505.216 C 190.639 505.867,191.483 506.400,191.695 506.400 C 192.112 506.400,196.603 509.032,197.631 509.880 C 198.424 510.533,199.942 510.539,201.046 509.894 C 202.181 509.231,204.899 507.617,209.959 504.600 C 210.697 504.160,211.773 503.420,212.350 502.956 C 212.928 502.492,214.030 501.796,214.800 501.408 C 215.570 501.021,216.470 500.481,216.800 500.208 C 217.130 499.936,218.016 499.506,218.770 499.253 C 219.523 499.000,220.423 498.512,220.770 498.168 C 221.875 497.072,227.537 493.553,230.071 492.387 C 231.101 491.913,232.254 491.183,232.633 490.763 C 233.013 490.343,233.532 490.000,233.787 490.000 C 234.041 490.000,234.618 489.657,235.068 489.237 C 235.889 488.472,237.529 487.512,241.366 485.550 C 242.495 484.973,243.661 484.208,243.958 483.850 C 244.255 483.493,244.712 483.200,244.974 483.200 C 245.235 483.200,245.798 482.885,246.225 482.500 C 247.136 481.677,251.473 479.039,252.540 478.658 C 252.947 478.513,253.757 478.022,254.340 477.567 C 255.868 476.375,259.908 473.855,262.642 472.387 C 263.939 471.691,265.360 470.801,265.800 470.408 C 266.240 470.015,267.140 469.393,267.800 469.026 C 268.460 468.659,269.990 467.750,271.200 467.006 C 272.410 466.263,274.165 465.293,275.100 464.850 C 276.035 464.407,276.800 463.891,276.800 463.702 C 276.800 463.514,277.565 462.957,278.500 462.466 C 279.435 461.974,281.190 460.953,282.400 460.197 C 283.610 459.440,285.349 458.470,286.263 458.041 C 287.178 457.611,288.078 457.021,288.263 456.730 C 288.449 456.438,289.230 455.877,290.000 455.482 C 290.770 455.087,292.570 454.061,294.000 453.201 C 295.430 452.341,297.050 451.438,297.600 451.195 C 298.150 450.952,298.960 450.399,299.400 449.965 C 299.840 449.532,301.454 448.371,302.986 447.386 C 304.518 446.400,305.922 445.325,306.106 444.997 C 306.289 444.669,306.673 444.400,306.959 444.400 C 307.244 444.400,308.957 443.410,310.764 442.200 C 312.572 440.990,314.148 440.000,314.265 440.000 C 314.591 440.000,319.290 437.134,320.200 436.380 C 320.640 436.016,322.440 434.941,324.200 433.991 C 325.960 433.041,327.909 431.844,328.531 431.332 C 329.153 430.819,329.886 430.400,330.161 430.400 C 330.436 430.400,331.083 429.950,331.600 429.400 C 332.117 428.850,332.753 428.400,333.014 428.400 C 333.275 428.400,334.188 427.924,335.044 427.343 C 335.900 426.761,337.368 426.023,338.307 425.703 C 339.246 425.382,340.185 424.802,340.392 424.415 C 340.600 424.027,341.316 423.483,341.985 423.206 C 342.653 422.929,343.200 422.540,343.200 422.342 C 343.200 422.143,343.605 421.791,344.100 421.559 C 347.641 419.901,351.412 417.670,351.497 417.183 C 351.819 415.340,353.208 415.413,313.726 415.200 L 276.624 415.000 276.118 414.000 C 275.718 413.210,275.611 402.340,275.606 362.144 C 275.600 312.673,275.579 311.263,274.835 310.344 L 274.071 309.400 200.735 309.358 C 160.401 309.335,126.907 309.391,126.304 309.484 M0.000 593.600 L 0.000 600.000 6.400 600.000 C 11.822 600.000,12.800 599.908,12.800 599.400 C 12.800 598.945,12.307 598.800,10.765 598.800 C 8.878 598.800,8.698 598.714,8.284 597.617 C 8.022 596.923,7.499 596.386,7.019 596.317 C 6.465 596.238,6.160 595.851,6.076 595.124 C 5.980 594.293,5.707 594.020,4.876 593.924 C 4.113 593.836,3.763 593.539,3.672 592.900 C 3.602 592.405,3.377 592.000,3.172 592.000 C 2.227 592.000,1.200 590.334,1.200 588.800 C 1.200 587.644,1.033 587.200,0.600 587.200 C 0.092 587.200,0.000 588.178,0.000 593.600 " stroke="none" fill="#b4a4bc" fill-rule="evenodd"></path></g></svg>