<svg id="svg" version="1.1" xmlns="http://www.w3.org/2000/svg" xmlns:xlink="http://www.w3.org/1999/xlink" width="400" height="600" viewBox="0, 0, 400,600"><g id="svgg"><path id="path0" d="M378.000 0.600 C 378.000 1.000,378.400 1.200,379.200 1.200 C 380.000 1.200,380.400 1.000,380.400 0.600 C 380.400 0.200,380.000 0.000,379.200 0.000 C 378.400 0.000,378.000 0.200,378.000 0.600 M8.021 2.500 C 8.042 3.798,8.043 3.799,8.670 2.900 C 9.015 2.405,9.535 2.000,9.825 2.000 C 10.115 2.000,10.464 1.820,10.600 1.600 C 10.747 1.362,10.271 1.200,9.424 1.200 C 8.080 1.200,8.001 1.273,8.021 2.500 M382.171 1.829 C 382.517 2.174,382.800 2.714,382.800 3.029 C 382.800 3.343,383.153 3.600,383.584 3.600 C 384.344 3.600,386.243 5.290,388.500 7.974 L 389.600 9.282 389.600 7.631 C 389.600 6.117,389.501 5.960,388.400 5.740 C 387.471 5.554,387.200 5.286,387.200 4.550 C 387.200 3.817,386.983 3.600,386.250 3.600 C 385.514 3.600,385.246 3.329,385.060 2.400 C 384.840 1.301,384.682 1.200,383.181 1.200 C 381.692 1.200,381.600 1.257,382.171 1.829 M5.867 3.867 C 5.720 4.013,5.600 4.451,5.600 4.839 C 5.600 5.257,5.246 5.596,4.731 5.672 C 4.254 5.742,3.790 6.022,3.701 6.292 C 3.397 7.214,5.645 5.735,6.214 4.638 C 6.708 3.685,6.503 3.230,5.867 3.867 M1.241 9.700 L 1.282 11.400 1.687 10.140 C 1.910 9.448,2.477 8.695,2.946 8.468 C 3.724 8.091,3.685 8.052,2.500 8.027 C 1.227 8.001,1.201 8.035,1.241 9.700 M17.638 9.485 C 15.670 10.265,12.131 13.499,10.311 16.182 L 9.215 17.800 9.207 300.137 L 9.200 582.473 10.100 583.691 C 10.910 584.787,14.089 588.094,16.214 590.050 C 17.007 590.781,21.583 590.800,195.562 590.800 L 374.096 590.800 375.894 589.700 C 378.911 587.854,381.153 585.633,381.591 584.055 C 382.118 582.159,382.161 17.275,381.634 15.891 C 381.097 14.478,377.983 11.577,376.735 11.327 C 376.142 11.208,375.252 10.681,374.758 10.156 L 373.861 9.200 196.030 9.232 C 98.224 9.249,17.947 9.363,17.638 9.485 M374.631 11.215 C 377.375 12.498,380.174 14.954,380.816 16.642 C 381.060 17.284,381.200 120.682,381.200 300.323 L 381.200 582.993 379.752 585.095 C 378.655 586.689,377.666 587.536,375.665 588.599 L 373.026 590.000 195.591 590.000 L 18.155 590.000 16.800 589.000 C 16.055 588.450,15.282 588.000,15.083 588.000 C 14.432 588.000,12.338 585.469,11.157 583.255 L 10.000 581.087 10.004 300.244 L 10.008 19.400 11.021 17.224 C 12.294 14.489,14.292 12.505,17.163 11.124 L 19.400 10.047 195.717 10.024 L 372.033 10.000 374.631 11.215 M390.400 10.916 C 391.127 11.282,391.466 11.854,391.643 13.010 C 391.880 14.559,391.888 14.546,391.943 12.500 L 392.000 10.400 390.700 10.406 L 389.400 10.412 390.400 10.916 M392.000 16.558 C 392.000 17.374,392.277 17.981,392.800 18.307 C 393.599 18.806,393.600 19.240,393.600 300.200 C 393.600 581.160,393.599 581.594,392.800 582.093 C 391.530 582.886,391.677 585.151,392.982 584.901 C 393.785 584.748,394.006 584.412,394.197 583.057 C 394.463 581.167,394.242 17.932,393.975 16.400 C 393.692 14.784,392.000 14.920,392.000 16.558 M29.509 27.086 C 26.524 27.539,26.800 17.122,26.800 129.228 C 26.800 229.205,26.821 230.857,28.125 231.686 C 28.386 231.852,103.983 231.991,196.118 231.994 L 363.636 232.000 364.618 231.018 L 365.600 230.036 365.594 129.318 C 365.591 73.923,365.437 28.362,365.252 28.071 C 365.068 27.780,364.216 27.379,363.359 27.181 C 361.849 26.830,31.806 26.737,29.509 27.086 M127.308 309.492 C 123.677 309.751,123.994 304.679,124.006 362.350 C 124.016 407.637,123.948 413.420,123.399 414.257 L 122.782 415.200 85.640 415.200 C 45.286 415.200,47.185 415.093,47.749 417.339 C 47.911 417.984,48.597 418.559,49.894 419.134 C 52.470 420.277,55.466 421.985,57.787 423.634 C 58.844 424.385,60.404 425.405,61.254 425.900 C 64.144 427.582,65.840 428.598,67.097 429.400 C 70.964 431.866,74.400 433.909,76.200 434.811 C 77.802 435.614,79.660 436.827,81.676 438.388 C 82.267 438.846,83.347 439.475,84.076 439.786 C 85.442 440.370,93.522 445.530,96.000 447.401 C 97.589 448.600,102.117 451.484,104.800 453.005 C 105.790 453.567,107.410 454.561,108.400 455.214 C 111.353 457.164,116.809 460.483,119.659 462.063 C 120.317 462.428,121.158 462.992,121.528 463.317 C 121.897 463.643,123.100 464.385,124.200 464.967 C 125.300 465.550,127.010 466.554,128.000 467.198 C 128.990 467.843,130.340 468.673,131.000 469.042 C 131.660 469.411,132.709 470.137,133.331 470.656 C 133.953 471.175,134.687 471.600,134.962 471.600 C 135.453 471.600,137.745 472.973,141.065 475.255 C 141.981 475.885,142.898 476.400,143.103 476.400 C 143.308 476.400,143.787 476.744,144.167 477.163 C 144.547 477.583,145.430 478.158,146.129 478.441 C 146.828 478.723,148.860 479.890,150.645 481.033 C 152.430 482.176,154.258 483.228,154.708 483.371 C 155.158 483.514,155.622 483.880,155.739 484.186 C 155.857 484.492,156.728 485.124,157.676 485.591 C 160.332 486.899,161.989 487.866,162.742 488.548 C 163.120 488.890,164.278 489.545,165.315 490.003 C 166.352 490.462,167.200 491.015,167.200 491.233 C 167.200 491.450,167.965 491.987,168.900 492.425 C 169.835 492.863,171.590 493.837,172.800 494.591 C 174.010 495.344,175.720 496.350,176.600 496.827 C 177.480 497.303,178.503 497.959,178.872 498.284 C 179.242 498.608,180.082 499.172,180.738 499.537 C 181.394 499.902,182.700 500.626,183.641 501.146 C 184.581 501.667,185.604 502.347,185.915 502.658 C 186.225 502.968,187.134 503.496,187.934 503.830 C 188.734 504.165,189.752 504.766,190.195 505.167 C 190.638 505.568,191.471 506.145,192.048 506.448 C 194.922 507.962,196.675 508.979,197.642 509.695 C 198.862 510.596,200.552 510.419,202.081 509.231 C 202.587 508.838,204.379 507.763,206.065 506.841 C 207.751 505.920,209.348 504.904,209.614 504.583 C 209.880 504.262,210.332 504.000,210.618 504.000 C 210.904 504.000,211.647 503.584,212.269 503.075 C 213.553 502.026,216.841 500.049,218.539 499.305 C 219.165 499.031,220.182 498.400,220.800 497.903 C 221.417 497.406,222.854 496.460,223.992 495.800 C 225.130 495.140,226.812 494.108,227.730 493.507 C 228.649 492.906,229.551 492.411,229.735 492.407 C 229.919 492.403,230.819 491.885,231.735 491.256 C 234.974 489.030,237.943 487.199,240.456 485.876 C 241.855 485.140,243.868 483.922,244.928 483.169 C 247.546 481.311,250.709 479.376,252.395 478.602 C 253.162 478.250,254.152 477.631,254.595 477.228 C 255.038 476.824,255.940 476.196,256.600 475.833 C 257.260 475.470,258.790 474.548,260.000 473.784 C 261.210 473.020,262.740 472.125,263.400 471.794 C 264.060 471.464,265.171 470.790,265.869 470.297 C 266.567 469.804,268.064 468.860,269.196 468.200 C 271.714 466.731,274.216 465.195,275.760 464.170 C 277.083 463.292,277.914 462.792,283.200 459.693 C 285.290 458.468,287.360 457.156,287.800 456.778 C 288.240 456.400,289.383 455.665,290.340 455.145 C 291.297 454.625,292.854 453.750,293.800 453.200 C 294.746 452.650,296.303 451.769,297.260 451.242 C 298.217 450.716,299.235 449.951,299.523 449.542 C 299.810 449.134,300.219 448.800,300.432 448.800 C 300.823 448.800,303.864 446.796,305.897 445.200 C 306.914 444.401,312.702 440.823,317.339 438.127 C 318.405 437.507,319.781 436.595,320.397 436.100 C 321.012 435.605,321.676 435.200,321.871 435.200 C 322.067 435.200,323.158 434.615,324.295 433.900 C 325.433 433.185,327.300 432.060,328.445 431.400 C 329.590 430.740,330.920 429.840,331.401 429.400 C 332.345 428.536,337.928 425.599,338.625 425.600 C 338.859 425.600,339.568 425.060,340.200 424.400 C 340.832 423.740,341.515 423.200,341.717 423.200 C 341.919 423.200,342.585 422.779,343.197 422.264 C 343.809 421.749,345.950 420.480,347.955 419.445 C 351.741 417.490,352.210 416.873,350.711 415.823 C 349.922 415.270,345.708 415.200,313.305 415.200 L 276.788 415.200 276.001 413.906 C 275.229 412.637,275.214 411.620,275.205 361.814 C 275.195 311.376,275.189 311.012,274.387 310.209 C 273.637 309.459,137.127 308.794,127.308 309.492 M273.520 310.880 C 273.888 311.248,274.000 323.203,274.000 362.254 C 274.000 392.606,274.150 413.542,274.371 414.125 C 275.082 415.995,275.185 416.000,313.211 416.000 C 344.952 416.000,349.161 416.071,349.610 416.613 C 350.192 417.314,349.359 418.157,347.651 418.596 C 346.409 418.915,340.412 423.005,339.704 424.015 C 339.402 424.447,338.820 424.800,338.411 424.800 C 337.418 424.800,332.462 427.430,331.178 428.638 C 330.616 429.167,329.955 429.600,329.709 429.600 C 329.463 429.600,328.753 430.009,328.131 430.509 C 327.509 431.009,326.370 431.737,325.600 432.127 C 322.848 433.523,320.657 434.849,319.507 435.817 C 318.864 436.358,318.185 436.800,317.998 436.800 C 317.810 436.800,317.419 437.033,317.129 437.318 C 316.838 437.602,315.250 438.514,313.600 439.343 C 311.950 440.172,309.970 441.352,309.200 441.964 C 308.430 442.576,307.215 443.379,306.500 443.748 C 305.785 444.118,305.200 444.574,305.200 444.762 C 305.200 444.949,304.656 445.328,303.991 445.604 C 303.325 445.879,302.650 446.328,302.491 446.600 C 302.331 446.873,301.435 447.483,300.500 447.956 C 299.565 448.429,298.800 448.991,298.800 449.205 C 298.800 449.582,297.521 450.339,294.200 451.929 C 293.320 452.350,291.460 453.483,290.067 454.447 C 288.673 455.411,287.041 456.476,286.440 456.813 C 285.838 457.151,284.855 457.813,284.254 458.286 C 283.654 458.758,282.643 459.259,282.009 459.398 C 281.374 459.537,280.630 459.923,280.354 460.255 C 280.079 460.587,279.211 461.206,278.427 461.631 C 277.642 462.056,276.550 462.735,276.000 463.140 C 273.777 464.777,271.743 465.963,270.738 466.209 C 270.154 466.351,269.267 466.902,268.768 467.434 C 268.269 467.965,267.636 468.400,267.361 468.400 C 267.086 468.400,266.336 468.842,265.693 469.383 C 264.476 470.407,262.134 471.791,259.400 473.103 C 258.520 473.525,257.553 474.169,257.251 474.535 C 256.949 474.901,256.468 475.200,256.182 475.200 C 255.896 475.200,255.153 475.625,254.531 476.145 C 253.909 476.665,252.617 477.520,251.660 478.045 C 249.920 479.000,247.699 480.294,245.218 481.800 C 244.492 482.240,243.427 482.976,242.850 483.436 C 242.272 483.896,240.243 485.116,238.340 486.147 C 236.438 487.177,234.660 488.286,234.391 488.610 C 234.122 488.935,233.682 489.200,233.413 489.200 C 233.144 489.200,232.581 489.581,232.162 490.047 C 231.743 490.512,230.500 491.328,229.400 491.860 C 226.044 493.481,223.885 494.739,222.000 496.171 C 221.010 496.923,218.593 498.373,216.630 499.393 C 214.666 500.413,212.537 501.686,211.899 502.224 C 211.261 502.761,210.572 503.200,210.369 503.200 C 210.166 503.200,209.655 503.545,209.234 503.966 C 208.812 504.388,207.687 505.118,206.734 505.588 C 205.780 506.059,203.663 507.155,202.029 508.023 C 199.303 509.473,198.989 509.554,198.229 509.011 C 197.773 508.685,196.680 508.052,195.800 507.603 C 194.920 507.155,193.210 506.164,192.000 505.400 C 190.790 504.636,189.035 503.641,188.100 503.187 C 187.165 502.734,186.400 502.189,186.400 501.977 C 186.400 501.766,185.615 501.189,184.655 500.696 C 180.697 498.663,178.843 497.592,178.601 497.202 C 178.460 496.974,177.701 496.519,176.914 496.190 C 176.126 495.861,175.284 495.330,175.041 495.009 C 174.798 494.689,173.220 493.722,171.532 492.859 C 169.845 491.996,167.848 490.820,167.095 490.245 C 166.341 489.670,165.516 489.200,165.262 489.200 C 165.008 489.200,164.408 488.808,163.929 488.329 C 163.059 487.459,161.210 486.319,158.200 484.797 C 156.613 483.994,154.746 482.775,152.776 481.255 C 152.212 480.820,150.232 479.694,148.376 478.753 C 146.519 477.812,144.910 476.916,144.800 476.761 C 144.385 476.177,140.087 473.455,137.200 471.948 C 135.550 471.086,133.750 470.014,133.200 469.564 C 131.790 468.412,129.893 467.233,126.200 465.213 C 124.440 464.251,122.522 463.089,121.939 462.632 C 121.355 462.174,119.946 461.260,118.806 460.600 C 117.667 459.940,116.095 458.984,115.313 458.475 C 114.530 457.966,113.195 457.271,112.345 456.931 C 111.495 456.591,110.800 456.158,110.800 455.969 C 110.800 455.589,106.781 452.925,105.436 452.414 C 104.969 452.236,103.087 451.087,101.254 449.860 C 99.420 448.633,97.578 447.520,97.160 447.387 C 96.742 447.255,96.400 446.998,96.400 446.816 C 96.400 446.635,95.137 445.702,93.593 444.743 C 92.049 443.784,89.579 442.145,88.104 441.100 C 86.629 440.055,85.212 439.200,84.956 439.200 C 84.700 439.200,83.610 438.595,82.536 437.856 C 81.461 437.116,80.197 436.390,79.728 436.241 C 79.258 436.091,78.771 435.702,78.645 435.374 C 78.520 435.047,77.648 434.410,76.708 433.959 C 73.487 432.413,71.680 431.399,70.925 430.715 C 70.510 430.339,69.533 429.764,68.754 429.438 C 67.974 429.113,67.095 428.555,66.799 428.199 C 66.504 427.843,65.573 427.203,64.731 426.776 C 63.889 426.349,62.439 425.616,61.508 425.146 C 60.577 424.677,59.002 423.610,58.008 422.777 C 56.206 421.266,51.106 418.400,50.220 418.400 C 49.295 418.400,48.352 417.391,48.621 416.689 C 48.869 416.044,51.225 415.997,85.343 415.960 C 105.394 415.938,122.234 415.799,122.764 415.651 C 125.415 414.909,125.232 418.907,125.211 362.432 C 125.193 314.266,125.230 311.465,125.896 310.960 C 126.880 310.213,272.774 310.134,273.520 310.880 M391.678 586.726 C 391.580 588.387,390.950 589.600,390.186 589.600 C 389.864 589.600,389.600 589.933,389.600 590.340 C 389.600 591.739,388.757 593.497,387.879 593.929 C 387.073 594.325,387.108 594.355,388.300 594.295 C 389.440 594.238,389.600 594.093,389.600 593.115 C 389.600 592.189,389.771 592.000,390.613 592.000 C 391.910 592.000,392.070 591.521,391.898 588.160 C 391.820 586.642,391.721 585.997,391.678 586.726 M1.201 590.500 C 1.200 591.932,1.259 591.999,2.500 591.968 C 3.215 591.951,3.560 591.841,3.267 591.724 C 2.974 591.607,2.390 590.946,1.969 590.256 L 1.203 589.000 1.201 590.500 M3.600 593.520 C 3.600 594.027,3.849 594.400,4.187 594.400 C 4.572 594.400,4.686 594.631,4.518 595.069 C 4.323 595.577,4.423 595.677,4.931 595.482 C 5.369 595.314,5.600 595.428,5.600 595.813 C 5.600 596.136,5.938 596.400,6.351 596.400 C 7.064 596.400,7.070 596.328,6.468 595.000 C 6.119 594.230,5.547 593.600,5.197 593.600 C 4.846 593.600,4.344 593.384,4.080 593.120 C 3.707 592.747,3.600 592.836,3.600 593.520 M383.000 597.642 L 381.800 598.838 383.400 598.719 C 384.813 598.614,385.015 598.471,385.127 597.500 C 385.293 596.055,384.541 596.106,383.000 597.642 M8.000 597.711 C 8.000 598.712,8.121 598.796,9.500 598.746 C 10.422 598.712,10.654 598.624,10.104 598.518 C 9.610 598.423,8.935 597.958,8.604 597.484 C 8.002 596.625,8.000 596.626,8.000 597.711 " stroke="none" fill="#0463ab" fill-rule="evenodd"></path><path id="path1" d="M12.800 0.600 C 12.800 0.930,12.468 1.200,12.061 1.200 C 11.033 1.200,8.922 2.305,8.663 2.979 C 8.545 3.286,8.037 3.597,7.534 3.669 C 7.032 3.741,6.409 4.224,6.152 4.742 C 5.895 5.260,5.260 5.895,4.742 6.152 C 4.224 6.409,3.744 7.012,3.675 7.491 C 3.606 7.970,3.228 8.464,2.836 8.589 C 2.160 8.803,1.200 11.127,1.200 12.546 C 1.200 12.906,0.930 13.200,0.600 13.200 C 0.067 13.200,0.000 45.356,0.000 300.200 C 0.000 555.044,0.067 587.200,0.600 587.200 C 0.938 587.200,1.200 587.558,1.200 588.020 C 1.200 588.999,2.199 591.031,2.900 591.480 C 3.175 591.656,3.598 592.160,3.841 592.600 C 4.083 593.040,4.660 593.456,5.122 593.525 C 5.584 593.594,6.086 594.044,6.238 594.525 C 6.797 596.300,9.380 598.385,11.354 598.656 C 12.523 598.816,13.200 599.109,13.200 599.454 C 13.200 599.914,41.998 600.000,196.800 600.000 C 359.733 600.000,380.400 599.932,380.400 599.400 C 380.400 599.070,380.715 598.799,381.100 598.798 C 381.485 598.797,382.375 598.257,383.078 597.598 C 383.781 596.939,384.714 596.400,385.150 596.400 C 386.061 596.400,387.200 595.399,387.200 594.598 C 387.200 594.299,387.545 593.944,387.967 593.811 C 388.735 593.567,389.600 591.729,389.600 590.340 C 389.600 589.933,389.864 589.600,390.186 589.600 C 391.061 589.600,391.485 588.508,391.815 585.400 C 392.032 583.358,392.314 582.458,392.856 582.077 C 394.013 581.264,394.025 19.149,392.868 18.323 C 392.330 17.938,392.038 16.953,391.768 14.600 C 391.452 11.851,391.273 11.344,390.500 11.005 C 390.005 10.788,389.600 10.311,389.600 9.946 C 389.600 8.681,384.783 3.600,383.584 3.600 C 383.153 3.600,382.800 3.343,382.800 3.029 C 382.800 1.936,381.581 1.200,379.771 1.200 C 378.463 1.200,378.000 1.043,378.000 0.600 C 378.000 0.068,357.444 0.000,195.400 0.000 C 33.356 0.000,12.800 0.068,12.800 0.600 M374.758 10.156 C 375.252 10.681,376.142 11.208,376.735 11.327 C 377.983 11.577,381.097 14.478,381.634 15.891 C 382.161 17.275,382.118 582.159,381.591 584.055 C 381.153 585.633,378.911 587.854,375.894 589.700 L 374.096 590.800 195.562 590.800 C 21.583 590.800,17.007 590.781,16.214 590.050 C 14.089 588.094,10.910 584.787,10.100 583.691 L 9.200 582.473 9.207 300.137 L 9.215 17.800 10.311 16.182 C 12.131 13.499,15.670 10.265,17.638 9.485 C 17.947 9.363,98.224 9.249,196.030 9.232 L 373.861 9.200 374.758 10.156 M125.896 310.960 C 125.230 311.465,125.193 314.266,125.211 362.432 C 125.232 418.907,125.415 414.909,122.764 415.651 C 122.234 415.799,105.394 415.938,85.343 415.960 C 51.225 415.997,48.869 416.044,48.621 416.689 C 48.352 417.391,49.295 418.400,50.220 418.400 C 51.106 418.400,56.206 421.266,58.008 422.777 C 59.002 423.610,60.577 424.677,61.508 425.146 C 62.439 425.616,63.889 426.349,64.731 426.776 C 65.573 427.203,66.504 427.843,66.799 428.199 C 67.095 428.555,67.974 429.113,68.754 429.438 C 69.533 429.764,70.510 430.339,70.925 430.715 C 71.680 431.399,73.487 432.413,76.708 433.959 C 77.648 434.410,78.520 435.047,78.645 435.374 C 78.771 435.702,79.258 436.091,79.728 436.241 C 80.197 436.390,81.461 437.116,82.536 437.856 C 83.610 438.595,84.700 439.200,84.956 439.200 C 85.212 439.200,86.629 440.055,88.104 441.100 C 89.579 442.145,92.049 443.784,93.593 444.743 C 95.137 445.702,96.400 446.635,96.400 446.816 C 96.400 446.998,96.742 447.255,97.160 447.387 C 97.578 447.520,99.420 448.633,101.254 449.860 C 103.087 451.087,104.969 452.236,105.436 452.414 C 106.781 452.925,110.800 455.589,110.800 455.969 C 110.800 456.158,111.495 456.591,112.345 456.931 C 113.195 457.271,114.530 457.966,115.313 458.475 C 116.095 458.984,117.667 459.940,118.806 460.600 C 119.946 461.260,121.355 462.174,121.939 462.632 C 122.522 463.089,124.440 464.251,126.200 465.213 C 129.893 467.233,131.790 468.412,133.200 469.564 C 133.750 470.014,135.550 471.086,137.200 471.948 C 140.087 473.455,144.385 476.177,144.800 476.761 C 144.910 476.916,146.519 477.812,148.376 478.753 C 150.232 479.694,152.212 480.820,152.776 481.255 C 154.746 482.775,156.613 483.994,158.200 484.797 C 161.210 486.319,163.059 487.459,163.929 488.329 C 164.408 488.808,165.008 489.200,165.262 489.200 C 165.516 489.200,166.341 489.670,167.095 490.245 C 167.848 490.820,169.845 491.996,171.532 492.859 C 173.220 493.722,174.798 494.689,175.041 495.009 C 175.284 495.330,176.126 495.861,176.914 496.190 C 177.701 496.519,178.460 496.974,178.601 497.202 C 178.843 497.592,180.697 498.663,184.655 500.696 C 185.615 501.189,186.400 501.766,186.400 501.977 C 186.400 502.189,187.165 502.734,188.100 503.187 C 189.035 503.641,190.790 504.636,192.000 505.400 C 193.210 506.164,194.920 507.155,195.800 507.603 C 196.680 508.052,197.773 508.685,198.229 509.011 C 198.989 509.554,199.303 509.473,202.029 508.023 C 203.663 507.155,205.780 506.059,206.734 505.588 C 207.687 505.118,208.812 504.388,209.234 503.966 C 209.655 503.545,210.166 503.200,210.369 503.200 C 210.572 503.200,211.261 502.761,211.899 502.224 C 212.537 501.686,214.666 500.413,216.630 499.393 C 218.593 498.373,221.010 496.923,222.000 496.171 C 223.885 494.739,226.044 493.481,229.400 491.860 C 230.500 491.328,231.743 490.512,232.162 490.047 C 232.581 489.581,233.144 489.200,233.413 489.200 C 233.682 489.200,234.122 488.935,234.391 488.610 C 234.660 488.286,236.438 487.177,238.340 486.147 C 240.243 485.116,242.272 483.896,242.850 483.436 C 243.427 482.976,244.492 482.240,245.218 481.800 C 247.699 480.294,249.920 479.000,251.660 478.045 C 252.617 477.520,253.909 476.665,254.531 476.145 C 255.153 475.625,255.896 475.200,256.182 475.200 C 256.468 475.200,256.949 474.901,257.251 474.535 C 257.553 474.169,258.520 473.525,259.400 473.103 C 262.134 471.791,264.476 470.407,265.693 469.383 C 266.336 468.842,267.086 468.400,267.361 468.400 C 267.636 468.400,268.269 467.965,268.768 467.434 C 269.267 466.902,270.154 466.351,270.738 466.209 C 271.743 465.963,273.777 464.777,276.000 463.140 C 276.550 462.735,277.642 462.056,278.427 461.631 C 279.211 461.206,280.079 460.587,280.354 460.255 C 280.630 459.923,281.374 459.537,282.009 459.398 C 282.643 459.259,283.654 458.758,284.254 458.286 C 284.855 457.813,285.838 457.151,286.440 456.813 C 287.041 456.476,288.673 455.411,290.067 454.447 C 291.460 453.483,293.320 452.350,294.200 451.929 C 297.521 450.339,298.800 449.582,298.800 449.205 C 298.800 448.991,299.565 448.429,300.500 447.956 C 301.435 447.483,302.331 446.873,302.491 446.600 C 302.650 446.328,303.325 445.879,303.991 445.604 C 304.656 445.328,305.200 444.949,305.200 444.762 C 305.200 444.574,305.785 444.118,306.500 443.748 C 307.215 443.379,308.430 442.576,309.200 441.964 C 309.970 441.352,311.950 440.172,313.600 439.343 C 315.250 438.514,316.838 437.602,317.129 437.318 C 317.419 437.033,317.810 436.800,317.998 436.800 C 318.185 436.800,318.864 436.358,319.507 435.817 C 320.657 434.849,322.848 433.523,325.600 432.127 C 326.370 431.737,327.509 431.009,328.131 430.509 C 328.753 430.009,329.463 429.600,329.709 429.600 C 329.955 429.600,330.616 429.167,331.178 428.638 C 332.462 427.430,337.418 424.800,338.411 424.800 C 338.820 424.800,339.402 424.447,339.704 424.015 C 340.412 423.005,346.409 418.915,347.651 418.596 C 349.359 418.157,350.192 417.314,349.610 416.613 C 349.161 416.071,344.952 416.000,313.211 416.000 C 275.185 416.000,275.082 415.995,274.371 414.125 C 274.150 413.542,274.000 392.606,274.000 362.254 C 274.000 323.203,273.888 311.248,273.520 310.880 C 272.774 310.134,126.880 310.213,125.896 310.960 " stroke="none" fill="#040a06" fill-rule="evenodd"></path><path id="path2" d="M0.000 6.400 C 0.000 11.822,0.092 12.800,0.600 12.800 C 1.067 12.800,1.200 12.267,1.200 10.400 C 1.200 8.012,1.206 8.000,2.373 8.000 C 3.356 8.000,3.567 7.821,3.673 6.900 C 3.763 6.123,4.057 5.763,4.675 5.675 C 5.221 5.598,5.598 5.221,5.675 4.675 C 5.763 4.057,6.123 3.763,6.900 3.673 C 7.821 3.567,8.000 3.356,8.000 2.373 C 8.000 1.218,8.033 1.200,10.200 1.200 C 11.889 1.200,12.400 1.061,12.400 0.600 C 12.400 0.092,11.444 0.000,6.200 0.000 L 0.000 0.000 0.000 6.400 M380.400 0.600 C 380.400 1.061,380.912 1.200,382.610 1.200 C 384.746 1.200,384.828 1.240,385.060 2.400 C 385.246 3.329,385.514 3.600,386.250 3.600 C 386.983 3.600,387.200 3.817,387.200 4.550 C 387.200 5.286,387.471 5.554,388.400 5.740 C 389.560 5.972,389.600 6.054,389.600 8.190 C 389.600 10.371,389.616 10.400,390.781 10.400 C 391.950 10.400,391.963 10.425,392.081 12.900 C 392.185 15.094,392.298 15.400,393.000 15.400 C 394.212 15.400,394.141 -0.269,394.290 299.400 C 394.437 594.622,394.479 584.676,393.079 584.875 C 392.271 584.990,392.184 585.275,392.000 588.400 C 391.803 591.755,391.786 591.802,390.700 591.927 C 389.779 592.033,389.600 592.244,389.600 593.227 C 389.600 593.872,389.465 594.379,389.300 594.353 C 387.881 594.129,387.200 594.468,387.200 595.400 C 387.200 596.193,386.998 596.400,386.227 596.400 C 385.462 596.400,385.226 596.636,385.127 597.500 C 385.007 598.541,384.877 598.606,382.700 598.720 C 381.013 598.808,380.400 598.994,380.400 599.420 C 380.400 599.911,381.905 600.000,390.200 600.000 L 400.000 600.000 400.000 300.000 L 400.000 0.000 390.200 0.000 C 381.756 0.000,380.400 0.083,380.400 0.600 M17.163 11.124 C 14.292 12.505,12.294 14.489,11.021 17.224 L 10.008 19.400 10.004 300.244 L 10.000 581.087 11.157 583.255 C 12.338 585.469,14.432 588.000,15.083 588.000 C 15.282 588.000,16.055 588.450,16.800 589.000 L 18.155 590.000 195.591 590.000 L 373.026 590.000 375.665 588.599 C 377.666 587.536,378.655 586.689,379.752 585.095 L 381.200 582.993 381.200 300.323 C 381.200 120.682,381.060 17.284,380.816 16.642 C 380.174 14.954,377.375 12.498,374.631 11.215 L 372.033 10.000 195.717 10.024 L 19.400 10.047 17.163 11.124 M363.359 27.181 C 364.216 27.379,365.068 27.780,365.252 28.071 C 365.437 28.362,365.591 73.923,365.594 129.318 L 365.600 230.036 364.618 231.018 L 363.636 232.000 196.118 231.994 C 103.983 231.991,28.386 231.852,28.125 231.686 C 26.821 230.857,26.800 229.205,26.800 129.228 C 26.800 17.122,26.524 27.539,29.509 27.086 C 31.806 26.737,361.849 26.830,363.359 27.181 M274.387 310.209 C 275.189 311.012,275.195 311.376,275.205 361.814 C 275.214 411.620,275.229 412.637,276.001 413.906 L 276.788 415.200 313.305 415.200 C 345.708 415.200,349.922 415.270,350.711 415.823 C 352.210 416.873,351.741 417.490,347.955 419.445 C 345.950 420.480,343.809 421.749,343.197 422.264 C 342.585 422.779,341.919 423.200,341.717 423.200 C 341.515 423.200,340.832 423.740,340.200 424.400 C 339.568 425.060,338.859 425.600,338.625 425.600 C 337.928 425.599,332.345 428.536,331.401 429.400 C 330.920 429.840,329.590 430.740,328.445 431.400 C 327.300 432.060,325.433 433.185,324.295 433.900 C 323.158 434.615,322.067 435.200,321.871 435.200 C 321.676 435.200,321.012 435.605,320.397 436.100 C 319.781 436.595,318.405 437.507,317.339 438.127 C 312.702 440.823,306.914 444.401,305.897 445.200 C 303.864 446.796,300.823 448.800,300.432 448.800 C 300.219 448.800,299.810 449.134,299.523 449.542 C 299.235 449.951,298.217 450.716,297.260 451.242 C 296.303 451.769,294.746 452.650,293.800 453.200 C 292.854 453.750,291.297 454.625,290.340 455.145 C 289.383 455.665,288.240 456.400,287.800 456.778 C 287.360 457.156,285.290 458.468,283.200 459.693 C 277.914 462.792,277.083 463.292,275.760 464.170 C 274.216 465.195,271.714 466.731,269.196 468.200 C 268.064 468.860,266.567 469.804,265.869 470.297 C 265.171 470.790,264.060 471.464,263.400 471.794 C 262.740 472.125,261.210 473.020,260.000 473.784 C 258.790 474.548,257.260 475.470,256.600 475.833 C 255.940 476.196,255.038 476.824,254.595 477.228 C 254.152 477.631,253.162 478.250,252.395 478.602 C 250.709 479.376,247.546 481.311,244.928 483.169 C 243.868 483.922,241.855 485.140,240.456 485.876 C 237.943 487.199,234.974 489.030,231.735 491.256 C 230.819 491.885,229.919 492.403,229.735 492.407 C 229.551 492.411,228.649 492.906,227.730 493.507 C 226.812 494.108,225.130 495.140,223.992 495.800 C 222.854 496.460,221.417 497.406,220.800 497.903 C 220.182 498.400,219.165 499.031,218.539 499.305 C 216.841 500.049,213.553 502.026,212.269 503.075 C 211.647 503.584,210.904 504.000,210.618 504.000 C 210.332 504.000,209.880 504.262,209.614 504.583 C 209.348 504.904,207.751 505.920,206.065 506.841 C 204.379 507.763,202.587 508.838,202.081 509.231 C 200.552 510.419,198.862 510.596,197.642 509.695 C 196.675 508.979,194.922 507.962,192.048 506.448 C 191.471 506.145,190.638 505.568,190.195 505.167 C 189.752 504.766,188.734 504.165,187.934 503.830 C 187.134 503.496,186.225 502.968,185.915 502.658 C 185.604 502.347,184.581 501.667,183.641 501.146 C 182.700 500.626,181.394 499.902,180.738 499.537 C 180.082 499.172,179.242 498.608,178.872 498.284 C 178.503 497.959,177.480 497.303,176.600 496.827 C 175.720 496.350,174.010 495.344,172.800 494.591 C 171.590 493.837,169.835 492.863,168.900 492.425 C 167.965 491.987,167.200 491.450,167.200 491.233 C 167.200 491.015,166.352 490.462,165.315 490.003 C 164.278 489.545,163.120 488.890,162.742 488.548 C 161.989 487.866,160.332 486.899,157.676 485.591 C 156.728 485.124,155.857 484.492,155.739 484.186 C 155.622 483.880,155.158 483.514,154.708 483.371 C 154.258 483.228,152.430 482.176,150.645 481.033 C 148.860 479.890,146.828 478.723,146.129 478.441 C 145.430 478.158,144.547 477.583,144.167 477.163 C 143.787 476.744,143.308 476.400,143.103 476.400 C 142.898 476.400,141.981 475.885,141.065 475.255 C 137.745 472.973,135.453 471.600,134.962 471.600 C 134.687 471.600,133.953 471.175,133.331 470.656 C 132.709 470.137,131.660 469.411,131.000 469.042 C 130.340 468.673,128.990 467.843,128.000 467.198 C 127.010 466.554,125.300 465.550,124.200 464.967 C 123.100 464.385,121.897 463.643,121.528 463.317 C 121.158 462.992,120.317 462.428,119.659 462.063 C 116.809 460.483,111.353 457.164,108.400 455.214 C 107.410 454.561,105.790 453.567,104.800 453.005 C 102.117 451.484,97.589 448.600,96.000 447.401 C 93.522 445.530,85.442 440.370,84.076 439.786 C 83.347 439.475,82.267 438.846,81.676 438.388 C 79.660 436.827,77.802 435.614,76.200 434.811 C 74.400 433.909,70.964 431.866,67.097 429.400 C 65.840 428.598,64.144 427.582,61.254 425.900 C 60.404 425.405,58.844 424.385,57.787 423.634 C 55.466 421.985,52.470 420.277,49.894 419.134 C 48.597 418.559,47.911 417.984,47.749 417.339 C 47.185 415.093,45.286 415.200,85.640 415.200 L 122.782 415.200 123.399 414.257 C 123.948 413.420,124.016 407.637,124.006 362.350 C 123.994 304.679,123.677 309.751,127.308 309.492 C 137.127 308.794,273.637 309.459,274.387 310.209 M0.000 593.600 L 0.000 600.000 6.400 600.000 C 11.822 600.000,12.800 599.908,12.800 599.400 C 12.800 598.933,12.267 598.800,10.400 598.800 L 8.000 598.800 8.000 597.600 C 8.000 596.533,7.867 596.400,6.800 596.400 C 6.011 596.400,5.600 596.199,5.600 595.813 C 5.600 595.428,5.369 595.314,4.931 595.482 C 4.423 595.677,4.323 595.577,4.518 595.069 C 4.686 594.631,4.572 594.400,4.187 594.400 C 3.801 594.400,3.600 593.989,3.600 593.200 C 3.600 592.133,3.467 592.000,2.400 592.000 L 1.200 592.000 1.200 589.600 C 1.200 587.733,1.067 587.200,0.600 587.200 C 0.092 587.200,0.000 588.178,0.000 593.600 " stroke="none" fill="#fbfbfb" fill-rule="evenodd"></path></g></svg>